<svg xmlns="http://www.w3.org/2000/svg" width="351.896" height="93.952" viewBox="0 0 93.106 24.858"><g aria-label="Blogs" style="line-height:1.25" font-weight="400" font-size="33.867" font-family="GeosansLight" letter-spacing="0" word-spacing="0" fill="#224" stroke-width=".265"><path style="line-height:1.25;-inkscape-font-specification:GeosansLight" d="M15.138 17.51q0-2.609-1.524-4.404-1.557-1.795-4.097-2.303 2.607-1.49 2.607-4.673 0-2.777-1.76-4.335Q8.703.339 5.892.339H0v24.18h7.552q3.184 0 5.385-1.964 2.201-1.93 2.201-5.046zM10.736 6.13q0 1.964-1.287 3.183-1.287 1.22-3.251 1.22H1.355V1.727h4.64q1.998 0 3.386 1.22 1.355 1.15 1.355 3.183zm3.048 11.38q0 2.505-1.83 4.063-1.794 1.558-4.368 1.558H1.355V11.92h6.231q2.608 0 4.335 1.49 1.863 1.558 1.863 4.098zM27.08 24.52v-1.39h-6.808V.34h-1.354v24.18zM50.47 12.43q0-5.487-3.488-8.976Q43.459 0 38.007 0q-5.487 0-8.975 3.488-3.454 3.455-3.454 8.941 0 5.486 3.488 8.975 3.454 3.454 8.94 3.454 5.487 0 8.976-3.488 3.488-3.455 3.488-8.94zm-1.389 0q0 4.91-3.082 7.992-3.115 3.048-7.992 3.048-4.843 0-7.959-3.116-3.082-3.082-3.082-7.925t3.116-7.959q3.116-3.115 7.925-3.115 4.877 0 7.992 3.115 3.082 3.082 3.082 7.96zM78.317 12.835h-9.516v1.389h7.992q-.338 3.251-2.71 5.825-3.115 3.42-8.229 3.42-4.775 0-7.958-3.115-3.116-3.116-3.116-7.925 0-4.775 3.15-7.925 3.15-3.15 7.924-3.15 5.86 0 9.11 4.471l1.118-.847Q72.357 0 65.854 0q-5.418 0-8.94 3.522-3.489 3.488-3.489 8.907 0 5.486 3.488 8.975 3.455 3.454 8.941 3.454 5.758 0 9.246-3.691 3.217-3.387 3.217-8.332zM93.106 18.254q0-2.879-1.964-4.809-.712-.711-1.863-1.388-1.152-.712-2.743-1.423-2.54-1.151-3.387-1.829-1.49-1.287-1.49-3.014 0-1.93 1.422-3.116 1.321-1.117 3.32-1.117 1.896 0 3.081.745.948.542 1.626 1.66l1.32-.576Q90.668.203 86.4.203q-2.574 0-4.335 1.558-1.795 1.524-1.795 4.03 0 2.506 1.761 4.03 1.05.949 3.929 2.236 1.524.677 2.506 1.219.982.542 1.456.982 1.795 1.592 1.795 3.996 0 2.54-1.524 3.86-1.49 1.288-4.098 1.288-4.572 0-5.757-4.335l-1.388.474q1.591 5.25 7.145 5.25 1.795 0 3.116-.475 3.895-1.456 3.895-6.062z"/></g></svg>