<?xml version="1.0" encoding="UTF-8" standalone="no"?>
<!-- Created with Inkscape (http://www.inkscape.org/) -->

<svg
   xmlns:dc="http://purl.org/dc/elements/1.1/"
   xmlns:cc="http://creativecommons.org/ns#"
   xmlns:rdf="http://www.w3.org/1999/02/22-rdf-syntax-ns#"
   xmlns:svg="http://www.w3.org/2000/svg"
   xmlns="http://www.w3.org/2000/svg"
   xmlns:sodipodi="http://sodipodi.sourceforge.net/DTD/sodipodi-0.dtd"
   xmlns:inkscape="http://www.inkscape.org/namespaces/inkscape"
   width="93.105812mm"
   height="24.85813mm"
   viewBox="0 0 93.105812 24.858129"
   version="1.1"
   id="svg4631"
   inkscape:version="0.92.3 (2405546, 2018-03-11)"
   sodipodi:docname="blogs.svg">
  <defs
     id="defs4625" />
  <sodipodi:namedview
     id="base"
     pagecolor="#ffffff"
     bordercolor="#666666"
     borderopacity="1.0"
     inkscape:pageopacity="0.0"
     inkscape:pageshadow="2"
     inkscape:zoom="1.4"
     inkscape:cx="80.120641"
     inkscape:cy="-139.75773"
     inkscape:document-units="mm"
     inkscape:current-layer="text1520-97-4"
     showgrid="false"
     fit-margin-top="0"
     fit-margin-left="0"
     fit-margin-right="0"
     fit-margin-bottom="0"
     inkscape:window-width="1920"
     inkscape:window-height="1031"
     inkscape:window-x="0"
     inkscape:window-y="25"
     inkscape:window-maximized="1" />
  <metadata
     id="metadata4628">
    <rdf:RDF>
      <cc:Work
         rdf:about="">
        <dc:format>image/svg+xml</dc:format>
        <dc:type
           rdf:resource="http://purl.org/dc/dcmitype/StillImage" />
        <dc:title></dc:title>
      </cc:Work>
    </rdf:RDF>
  </metadata>
  <g
     inkscape:label="レイヤー 1"
     inkscape:groupmode="layer"
     id="layer1"
     transform="translate(357.88069,-241.23823)">
    <g
       aria-label="Blogs"
       style="font-style:normal;font-weight:normal;font-size:10.58333302px;line-height:1.25;font-family:sans-serif;letter-spacing:0px;word-spacing:0px;fill:#000020;fill-opacity:1;stroke:none;stroke-width:0.26458332"
       id="text1520-97-4">
      <path
         inkscape:connector-curvature="0"
         id="path17"
         style="font-style:normal;font-variant:normal;font-weight:normal;font-stretch:normal;font-size:33.86666489px;line-height:1.25;font-family:GeosansLight;-inkscape-font-specification:GeosansLight;letter-spacing:0px;word-spacing:0px;fill:#000000;fill-opacity:1;stroke:none;stroke-width:0.07000434"
         d="m -342.74229,258.74729 q 0,-2.60773 -1.524,-4.40267 -1.55787,-1.79493 -4.09787,-2.30293 2.60773,-1.49013 2.60773,-4.6736 0,-2.77707 -1.76106,-4.33493 -1.65947,-1.45627 -4.4704,-1.45627 h -5.8928 v 24.1808 h 7.55226 q 3.18347,0 5.3848,-1.96427 2.20134,-1.9304 2.20134,-5.04613 z m -4.40267,-11.3792 q 0,1.96427 -1.28693,3.18347 -1.28694,1.2192 -3.2512,1.2192 h -4.84294 v -8.80534 h 4.63974 q 1.99813,0 3.38666,1.2192 1.35467,1.15147 1.35467,3.18347 z m 3.048,11.3792 q 0,2.50613 -1.8288,4.064 -1.79493,1.55787 -4.3688,1.55787 h -6.23147 v -11.20987 h 6.23147 q 2.60773,0 4.33493,1.49013 1.86267,1.55787 1.86267,4.09787 z" />
      <path
         inkscape:connector-curvature="0"
         id="path19"
         style="font-style:normal;font-variant:normal;font-weight:normal;font-stretch:normal;font-size:33.86666489px;line-height:1.25;font-family:GeosansLight;-inkscape-font-specification:GeosansLight;letter-spacing:0px;word-spacing:0px;fill:#000000;fill-opacity:1;stroke:none;stroke-width:0.07000434"
         d="m -330.80112,265.75769 v -1.38853 h -6.8072 v -22.79227 h -1.35467 v 24.1808 z" />
      <path
         inkscape:connector-curvature="0"
         id="path21"
         style="font-style:normal;font-variant:normal;font-weight:normal;font-stretch:normal;font-size:33.86666489px;line-height:1.25;font-family:GeosansLight;-inkscape-font-specification:GeosansLight;letter-spacing:0px;word-spacing:0px;fill:#000000;fill-opacity:1;stroke:none;stroke-width:0.07000434"
         d="m -307.4109,253.66729 q 0,-5.4864 -3.48826,-8.97467 -3.52213,-3.45439 -8.97467,-3.45439 -5.4864,0 -8.97466,3.48826 -3.4544,3.4544 -3.4544,8.9408 0,5.4864 3.48826,8.97467 3.4544,3.4544 8.9408,3.4544 5.4864,0 8.97467,-3.48827 3.48826,-3.4544 3.48826,-8.9408 z m -1.38853,0 q 0,4.91067 -3.08187,7.99253 -3.11573,3.048 -7.99253,3.048 -4.84293,0 -7.95866,-3.11573 -3.08187,-3.08187 -3.08187,-7.9248 0,-4.84293 3.11573,-7.95867 3.11574,-3.11573 7.9248,-3.11573 4.8768,0 7.99253,3.11573 3.08187,3.08187 3.08187,7.95867 z" />
      <path
         inkscape:connector-curvature="0"
         id="path23"
         style="font-style:normal;font-variant:normal;font-weight:normal;font-stretch:normal;font-size:33.86666489px;line-height:1.25;font-family:GeosansLight;-inkscape-font-specification:GeosansLight;letter-spacing:0px;word-spacing:0px;fill:#000000;fill-opacity:1;stroke:none;stroke-width:0.07000434"
         d="m -279.5635,254.07369 h -9.51654 v 1.38853 h 7.99254 q -0.33867,3.2512 -2.70934,5.82507 -3.11573,3.42053 -8.22959,3.42053 -4.7752,0 -7.95867,-3.11573 -3.11573,-3.11573 -3.11573,-7.9248 0,-4.7752 3.1496,-7.9248 3.1496,-3.1496 7.9248,-3.1496 5.85893,0 9.11013,4.4704 l 1.1176,-0.84667 q -3.72534,-4.97839 -10.22773,-4.97839 -5.41867,0 -8.9408,3.52213 -3.48827,3.48826 -3.48827,8.90693 0,5.4864 3.48827,8.97467 3.4544,3.4544 8.9408,3.4544 5.75733,0 9.24559,-3.69147 3.21734,-3.38667 3.21734,-8.3312 z" />
      <path
         inkscape:connector-curvature="0"
         id="path25"
         style="font-style:normal;font-variant:normal;font-weight:normal;font-stretch:normal;font-size:33.86666489px;line-height:1.25;font-family:GeosansLight;-inkscape-font-specification:GeosansLight;letter-spacing:0px;word-spacing:0px;fill:#000000;fill-opacity:1;stroke:none;stroke-width:0.07000434"
         d="m -264.77488,259.49236 q 0,-2.87867 -1.96427,-4.80907 -0.7112,-0.7112 -1.86266,-1.38853 -1.15147,-0.7112 -2.7432,-1.4224 -2.54,-1.15147 -3.38667,-1.8288 -1.49013,-1.28694 -1.49013,-3.01414 0,-1.9304 1.4224,-3.11573 1.3208,-1.1176 3.31893,-1.1176 1.89653,0 3.08187,0.74507 0.94826,0.54186 1.6256,1.65946 l 1.3208,-0.57573 q -1.76107,-3.18346 -6.02827,-3.18346 -2.57387,0 -4.33493,1.55786 -1.79494,1.524 -1.79494,4.03013 0,2.50614 1.76107,4.03014 1.04987,0.94826 3.92853,2.2352 1.524,0.67733 2.50614,1.2192 0.98213,0.54186 1.45626,0.98213 1.79494,1.59173 1.79494,3.99627 0,2.54 -1.524,3.8608 -1.49014,1.28693 -4.09787,1.28693 -4.572,0 -5.75733,-4.33493 l -1.38854,0.47413 q 1.59174,5.24933 7.14587,5.24933 1.79493,0 3.11573,-0.47413 3.89467,-1.45627 3.89467,-6.06213 z" />
    </g>
  </g>
</svg>
