<?xml version="1.0" encoding="UTF-8" standalone="no"?>
<!-- Created with Inkscape (http://www.inkscape.org/) -->

<svg
   xmlns:dc="http://purl.org/dc/elements/1.1/"
   xmlns:cc="http://creativecommons.org/ns#"
   xmlns:rdf="http://www.w3.org/1999/02/22-rdf-syntax-ns#"
   xmlns:svg="http://www.w3.org/2000/svg"
   xmlns="http://www.w3.org/2000/svg"
   xmlns:sodipodi="http://sodipodi.sourceforge.net/DTD/sodipodi-0.dtd"
   xmlns:inkscape="http://www.inkscape.org/namespaces/inkscape"
   width="143.63824mm"
   height="81.209259mm"
   viewBox="0 0 143.63824 81.209259"
   version="1.1"
   id="svg1821"
   inkscape:version="0.92.3 (2405546, 2018-03-11)"
   sodipodi:docname="logo_w_3l.svg">
  <defs
     id="defs1815" />
  <sodipodi:namedview
     id="base"
     pagecolor="#ffffff"
     bordercolor="#666666"
     borderopacity="1.0"
     inkscape:pageopacity="0.0"
     inkscape:pageshadow="2"
     inkscape:zoom="0.9899495"
     inkscape:cx="10.668305"
     inkscape:cy="119.22118"
     inkscape:document-units="mm"
     inkscape:current-layer="layer1"
     showgrid="false"
     fit-margin-top="0"
     fit-margin-left="0"
     fit-margin-right="0"
     fit-margin-bottom="0"
     inkscape:window-width="1600"
     inkscape:window-height="851"
     inkscape:window-x="0"
     inkscape:window-y="25"
     inkscape:window-maximized="1"
     inkscape:snap-page="true" />
  <metadata
     id="metadata1818">
    <rdf:RDF>
      <cc:Work
         rdf:about="">
        <dc:format>image/svg+xml</dc:format>
        <dc:type
           rdf:resource="http://purl.org/dc/dcmitype/StillImage" />
        <dc:title />
      </cc:Work>
    </rdf:RDF>
  </metadata>
  <g
     inkscape:label="レイヤー 1"
     inkscape:groupmode="layer"
     id="layer1"
     transform="translate(163.28936,-63.627513)">
    <rect
       style="fill:#ffffff;fill-opacity:1;stroke:#ff0000;stroke-width:0.11288889;stroke-linecap:square;stroke-linejoin:miter;stroke-miterlimit:4;stroke-dasharray:none;stroke-opacity:1"
       id="rect4445"
       width="143.63826"
       height="81.209259"
       x="-163.28935"
       y="63.627514" />
    <path
       sodipodi:nodetypes="sccccs"
       inkscape:connector-curvature="0"
       id="path14-8-9-9-4-1-5-8-9"
       d="m -148.98937,65.22751 c -7.01401,0 -12.7,5.686 -12.69999,12.7 l 4.23334,16.93336 16.93333,0 4.23333,-16.93336 c 0,-7.014 -5.68599,-12.7 -12.70001,-12.7 z"
       style="fill:#ffffff;fill-opacity:1;stroke:#ffffff;stroke-width:3.20000005;stroke-linecap:round;stroke-linejoin:round;stroke-miterlimit:4;stroke-dasharray:none;stroke-opacity:1" />
    <path
       sodipodi:nodetypes="sccccs"
       inkscape:connector-curvature="0"
       id="path14-0-4-2-4-6-1-68"
       d="m -148.98936,65.227493 c -7.01402,0 -12.7,5.686 -12.69999,12.7 l 4.23334,16.93336 16.93333,0 4.23332,-16.93336 c 0,-7.014 -5.68599,-12.7 -12.7,-12.7 z"
       style="fill:#222244;fill-opacity:1;stroke:#222244;stroke-width:0.84666663;stroke-linecap:round;stroke-linejoin:round;stroke-miterlimit:4;stroke-dasharray:none;stroke-opacity:1" />
    <path
       inkscape:connector-curvature="0"
       id="path4715-6-8-1-5-7-8-6-3"
       d="m -151.97995,91.50138 19.45715,17.96045 4.49013,-4.49013 -17.96044,-19.457156 -5.98684,5.986836"
       style="fill:#ffffff;fill-opacity:1;stroke:#ffffff;stroke-width:3.38666654;stroke-linecap:round;stroke-linejoin:round;stroke-miterlimit:4;stroke-dasharray:none;stroke-opacity:1" />
    <path
       style="fill:#ffffff;fill-opacity:1;stroke:#ffffff;stroke-width:3.38666654;stroke-linecap:round;stroke-linejoin:round;stroke-miterlimit:4;stroke-dasharray:none;stroke-opacity:1"
       d="m -145.9931,85.514533 a 4.2333331,4.2333331 0 0 1 1e-5,5.986858 4.2333331,4.2333331 0 0 1 -5.98685,-2.3e-5 4.2333331,4.2333331 0 0 1 4e-5,-5.986796 4.2333331,4.2333331 0 0 1 5.9868,-3.9e-5 z"
       id="path4702-0-9-6-7-9-7-4-4"
       inkscape:connector-curvature="0" />
    <path
       style="fill:#ffffff;fill-opacity:1;stroke:#ffffff;stroke-width:3.38666654;stroke-linecap:round;stroke-linejoin:round;stroke-miterlimit:4;stroke-dasharray:none;stroke-opacity:1"
       d="m -128.03266,104.97169 a 3.1749999,3.1749999 0 0 1 3e-5,4.49016 3.1749999,3.1749999 0 0 1 -4.49016,-3e-5 3.1749999,3.1749999 0 0 1 3e-5,-4.4901 3.1749999,3.1749999 0 0 1 4.4901,-3e-5 z"
       id="path4713-6-5-3-1-8-5-3-0"
       inkscape:connector-curvature="0" />
    <path
       inkscape:connector-curvature="0"
       id="path4715-8-3-6-1-2-8-56"
       d="m -151.97992,91.50139 19.45715,17.96045 4.49013,-4.49013 -17.96044,-19.457156 -5.98684,5.986836"
       style="fill:#222244;fill-opacity:1;stroke:#222244;stroke-width:0.84666663;stroke-linecap:round;stroke-linejoin:round;stroke-miterlimit:4;stroke-dasharray:none;stroke-opacity:1"
       inkscape:transform-center-x="1.7270508e-06"
       inkscape:transform-center-y="1.6536369" />
    <path
       style="fill:#ffffff;fill-opacity:1;stroke:#222244;stroke-width:0.84666663;stroke-linecap:round;stroke-linejoin:round;stroke-miterlimit:4;stroke-dasharray:none;stroke-opacity:1"
       d="m -145.99307,85.514543 a 4.2333331,4.2333331 0 0 1 10e-6,5.986858 4.2333331,4.2333331 0 0 1 -5.98685,-2.3e-5 4.2333331,4.2333331 0 0 1 -2e-5,-5.986852 4.2333331,4.2333331 0 0 1 5.98686,1.7e-5 z"
       id="path4702-6-4-9-0-4-6-5"
       inkscape:connector-curvature="0" />
    <path
       style="fill:#ffffff;fill-opacity:1;stroke:#222244;stroke-width:0.84666663;stroke-linecap:round;stroke-linejoin:round;stroke-miterlimit:4;stroke-dasharray:none;stroke-opacity:1"
       inkscape:transform-center-y="3.3072815"
       d="m -128.03263,104.9717 a 3.1749999,3.1749999 0 0 1 3e-5,4.49016 3.1749999,3.1749999 0 0 1 -4.49016,-3e-5 3.1749999,3.1749999 0 0 1 3e-5,-4.4901 3.1749999,3.1749999 0 0 1 4.4901,-3e-5 z"
       id="path4713-0-6-8-7-5-7-40"
       inkscape:connector-curvature="0" />
    <path
       sodipodi:nodetypes="cc"
       inkscape:connector-curvature="0"
       id="path4772-3-5-3-1-3-8-1"
       d="m -148.98937,88.51079 0,-12.86784"
       style="fill:#222244;fill-opacity:1;stroke:#ffffff;stroke-width:6.77333355;stroke-linecap:round;stroke-linejoin:round;stroke-miterlimit:4;stroke-dasharray:none;stroke-opacity:1" />
    <path
       sodipodi:nodetypes="cc"
       inkscape:connector-curvature="0"
       id="path4772-8-6-6-37-0-2-1-8"
       d="m -148.98937,88.510773 0,-15.05064"
       style="fill:#222244;fill-opacity:1;stroke:#222244;stroke-width:5.07999992;stroke-linecap:round;stroke-linejoin:round;stroke-miterlimit:4;stroke-dasharray:none;stroke-opacity:1" />
    <path
       inkscape:connector-curvature="0"
       id="path1528-9-13-81-61"
       d="m -123.31586,143.97943 a 28.679161,28.679161 0 0 0 -5.66147,-34.45549"
       style="display:inline;fill:none;fill-opacity:0;stroke:#ffffff;stroke-width:1.69333339;stroke-linecap:round;stroke-linejoin:round;stroke-miterlimit:4;stroke-dasharray:none;stroke-opacity:1" />
    <path
       inkscape:connector-curvature="0"
       id="path1534-3-4-6-0"
       d="M -114.17084,134.22536 A 48.286461,48.286461 0 0 0 -128.3962,108.90817"
       style="fill:none;fill-opacity:1;stroke:#ffffff;stroke-width:1.69333339;stroke-linecap:round;stroke-linejoin:round;stroke-miterlimit:4;stroke-dasharray:none;stroke-opacity:1" />
    <path
       inkscape:connector-curvature="0"
       id="path1528-94-4-8"
       d="m -123.32998,144.00571 a 28.679159,28.679159 0 0 0 -5.64735,-34.48177"
       style="fill:none;fill-opacity:1;stroke:#ffc080;stroke-width:0.84666663;stroke-linecap:round;stroke-linejoin:round;stroke-miterlimit:4;stroke-dasharray:none;stroke-opacity:1" />
    <path
       inkscape:connector-curvature="0"
       id="path1534-1-8-15"
       d="M -114.17084,134.22536 A 48.286461,48.286461 0 0 0 -128.3962,108.90817"
       style="fill:none;fill-opacity:1;stroke:#ffc080;stroke-width:0.84666663;stroke-linecap:round;stroke-linejoin:round;stroke-miterlimit:4;stroke-dasharray:none;stroke-opacity:1" />
    <path
       inkscape:connector-curvature="0"
       id="path1538-9-5-8"
       d="m -128.84882,111.27797 a 1.5874999,1.5875 0 0 0 1.50835,0.49499 1.5874999,1.5875 0 0 0 1.18287,-1.05876 1.5874999,1.5875 0 0 0 -0.32546,-1.55377"
       style="fill:#000000;fill-opacity:0;stroke:#ffffff;stroke-width:1.69333339;stroke-linecap:round;stroke-linejoin:round;stroke-miterlimit:4;stroke-dasharray:none;stroke-opacity:1" />
    <path
       inkscape:connector-curvature="0"
       id="path1538-0-57-0-8"
       d="m -128.84988,111.27677 a 1.5875,1.5874999 0 0 0 1.50834,0.495 1.5875,1.5874999 0 0 0 1.18287,-1.05876 1.5875,1.5874999 0 0 0 -0.32546,-1.55377"
       style="fill:#000000;fill-opacity:0;stroke:#ffc080;stroke-width:0.84666663;stroke-linecap:round;stroke-linejoin:round;stroke-miterlimit:4;stroke-dasharray:none;stroke-opacity:1" />
    <path
       style="fill:#f84008;fill-opacity:1;stroke:#ffffff;stroke-width:0.42333329;stroke-linecap:round;stroke-linejoin:round;stroke-miterlimit:4;stroke-dasharray:none;stroke-opacity:1"
       d="m -116.63594,132.12496 a 2.1166666,2.1166666 0 0 0 2.99189,-0.0957 2.1166666,2.1166666 0 0 0 -0.0956,-2.99188 2.1166666,2.1166666 0 0 0 -2.99189,0.0956 2.1166666,2.1166666 0 0 0 0.0956,2.9919 z"
       id="path1368-4-1-97"
       inkscape:connector-curvature="0" />
    <path
       style="display:inline;fill:#f84008;fill-opacity:1;stroke:#ffffff;stroke-width:0.42333329;stroke-linecap:round;stroke-linejoin:round;stroke-miterlimit:4;stroke-dasharray:none;stroke-opacity:1"
       d="m -122.61425,140.34957 a 2.1166666,2.1166666 0 0 0 2.99189,-0.0957 2.1166666,2.1166666 0 0 0 -0.0956,-2.99188 2.1166666,2.1166666 0 0 0 -2.9919,0.0956 2.1166666,2.1166666 0 0 0 0.0957,2.9919 z"
       id="path1368-5-1-5-48"
       inkscape:connector-curvature="0" />
    <path
       inkscape:connector-curvature="0"
       id="path6586"
       style="font-style:normal;font-variant:normal;font-weight:500;font-stretch:normal;font-size:33.86666489px;line-height:0.80000001;font-family:GeosansLight;-inkscape-font-specification:'GeosansLight, Medium';text-align:start;letter-spacing:0px;word-spacing:0px;writing-mode:lr-tb;text-anchor:start;fill:#222244;fill-opacity:1;stroke:none;stroke-width:0.26458332"
       d="m -88.60292,65.220499 -15.5448,0 0,1.4224 13.0386,0 -13.8514,22.758395 16.2898,0 0,-1.38853 -13.8176,0 z" />
    <path
       inkscape:connector-curvature="0"
       id="path6588"
       style="font-style:normal;font-variant:normal;font-weight:500;font-stretch:normal;font-size:33.86666489px;line-height:0.80000001;font-family:GeosansLight;-inkscape-font-specification:'GeosansLight, Medium';text-align:start;letter-spacing:0px;word-spacing:0px;writing-mode:lr-tb;text-anchor:start;fill:#222244;fill-opacity:1;stroke:none;stroke-width:0.26458332"
       d="m -83.69432,89.401294 0,-24.180795 -1.3546,0 0,24.180795 z" />
    <path
       inkscape:connector-curvature="0"
       id="path6590"
       style="font-style:normal;font-variant:normal;font-weight:500;font-stretch:normal;font-size:33.86666489px;line-height:0.80000001;font-family:GeosansLight;-inkscape-font-specification:'GeosansLight, Medium';text-align:start;letter-spacing:0px;word-spacing:0px;writing-mode:lr-tb;text-anchor:start;fill:#222244;fill-opacity:1;stroke:none;stroke-width:0.26458332"
       d="m -66.50142,71.214899 q 0,-2.7432 -1.89654,-4.3688 -1.89653,-1.6256 -4.6736,-1.6256 l -5.89279,0 0,24.180795 1.35469,0 0,-12.0904 4.5381,0 q 2.77707,0 4.6736,-1.69333 1.89654,-1.6256 1.89654,-4.402665 z m -1.38854,0 q 0,2.201335 -1.49013,3.488265 -1.49013,1.2192 -3.72533,1.2192 l -4.50424,0 0,-9.313332 4.50424,0 q 2.26906,0 3.6576,1.151467 1.55786,1.253066 1.55786,3.4544 z" />
    <path
       inkscape:connector-curvature="0"
       id="path6592"
       style="font-style:normal;font-variant:normal;font-weight:500;font-stretch:normal;font-size:33.86666489px;line-height:0.80000001;font-family:GeosansLight;-inkscape-font-specification:'GeosansLight, Medium';text-align:start;letter-spacing:0px;word-spacing:0px;writing-mode:lr-tb;text-anchor:start;fill:#222244;fill-opacity:1;stroke:none;stroke-width:0.26458332"
       d="m -50.72564,71.214899 q 0,-2.7432 -1.89654,-4.3688 -1.89653,-1.6256 -4.6736,-1.6256 l -5.8928,0 0,24.180795 1.35467,0 0,-12.0904 4.53813,0 q 2.77707,0 4.6736,-1.69333 1.89654,-1.6256 1.89654,-4.402665 z m -1.38854,0 q 0,2.201335 -1.49013,3.488265 -1.49013,1.2192 -3.72533,1.2192 l -4.50427,0 0,-9.313332 4.50427,0 q 2.26906,0 3.6576,1.151467 1.55786,1.253066 1.55786,3.4544 z" />
    <path
       inkscape:connector-curvature="0"
       id="path6594"
       style="font-style:normal;font-variant:normal;font-weight:500;font-stretch:normal;font-size:33.86666489px;line-height:0.80000001;font-family:GeosansLight;-inkscape-font-specification:'GeosansLight, Medium';text-align:start;letter-spacing:0px;word-spacing:0px;writing-mode:lr-tb;text-anchor:start;fill:#222244;fill-opacity:1;stroke:none;stroke-width:0.26458332"
       d="m -35.76742,89.401294 0,-1.38853 -10.22774,0 0,-11.10827 10.22774,0 0,-1.49013 -10.22774,0 0,-8.805332 10.22774,0 0,-1.388533 -11.61627,0 0,24.180795 z" />
    <path
       inkscape:connector-curvature="0"
       id="path6596"
       style="font-style:normal;font-variant:normal;font-weight:500;font-stretch:normal;font-size:33.86666489px;line-height:0.80000001;font-family:GeosansLight;-inkscape-font-specification:'GeosansLight, Medium';text-align:start;letter-spacing:0px;word-spacing:0px;writing-mode:lr-tb;text-anchor:start;fill:#222244;fill-opacity:1;stroke:none;stroke-width:0.26458332"
       d="m -19.65112,89.401294 -7.75547,-12.0904 q 1.45627,0 2.67547,-0.33866 1.2192,-0.37254 2.09973,-1.1176 0.9144,-0.74507 1.38853,-1.89654 0.508,-1.151462 0.508,-2.743195 0,-1.456267 -0.54186,-2.573867 -0.508,-1.1176 -1.38854,-1.862667 -0.88053,-0.778933 -2.09973,-1.151466 -1.2192,-0.4064 -2.57387,-0.4064 l -5.588,0 0,24.180795 1.35467,0 0,-12.0904 2.60773,0 7.68774,12.0904 z m -2.50614,-18.220262 q 0,2.302932 -1.35466,3.522132 -1.3208,1.2192 -3.48827,1.2192 l -4.572,0 0,-9.313332 4.19947,0 q 1.08373,0 2.032,0.3048 0.94826,0.270933 1.65946,0.846667 0.7112,0.541866 1.1176,1.4224 0.4064,0.846666 0.4064,1.998133 z" />
    <path
       inkscape:connector-curvature="0"
       id="path6598"
       style="font-style:normal;font-variant:normal;font-weight:500;font-stretch:normal;font-size:33.86666489px;line-height:0.80000001;font-family:GeosansLight;-inkscape-font-specification:'GeosansLight, Medium';text-align:start;letter-spacing:0px;word-spacing:0px;writing-mode:lr-tb;text-anchor:start;fill:#f84008;fill-opacity:1;stroke:none;stroke-width:0.26458332"
       d="m -87.11272,116.49463 -9.6859,-24.959736 -9.652,24.959736 1.3547,0 2.8109,-7.24747 11.0067,0 2.7771,7.24747 z m -4.7413,-8.636 -9.8891,0 4.9445,-12.801596 z" />
    <path
       inkscape:connector-curvature="0"
       id="path6600"
       style="font-style:normal;font-variant:normal;font-weight:500;font-stretch:normal;font-size:33.86666489px;line-height:0.80000001;font-family:GeosansLight;-inkscape-font-specification:'GeosansLight, Medium';text-align:start;letter-spacing:0px;word-spacing:0px;writing-mode:lr-tb;text-anchor:start;fill:#222244;fill-opacity:1;stroke:none;stroke-width:0.26458332"
       d="m -65.60949,116.90103 0,-24.587196 -1.38854,0 0,20.997326 -18.05089,-21.166666 0,24.350136 1.3546,0 0,-20.523196 z" />
    <path
       inkscape:connector-curvature="0"
       id="path6602"
       style="font-style:normal;font-variant:normal;font-weight:500;font-stretch:normal;font-size:33.86666489px;line-height:0.80000001;font-family:GeosansLight;-inkscape-font-specification:'GeosansLight, Medium';text-align:start;letter-spacing:0px;word-spacing:0px;writing-mode:lr-tb;text-anchor:start;fill:#222244;fill-opacity:1;stroke:none;stroke-width:0.26458332"
       d="m -43.76258,104.37036 q 0,-4.978396 -2.87867,-8.398926 -3.048,-3.6576 -7.9248,-3.6576 l -8.06026,0 0,24.180796 8.06026,0 q 4.91067,0 7.95867,-3.6576 2.8448,-3.4544 2.8448,-8.46667 z m -1.38854,0 q 0,4.9784 -2.9464,7.95867 -2.7432,2.77706 -6.46853,2.77706 l -6.7056,0 0,-21.437596 6.7056,0 q 4.30107,0 6.94267,3.2512 2.47226,3.01414 2.47226,7.450666 z" />
    <path
       inkscape:connector-curvature="0"
       id="path6604"
       style="font-style:normal;font-variant:normal;font-weight:500;font-stretch:normal;font-size:33.86666489px;line-height:0.80000001;font-family:GeosansLight;-inkscape-font-specification:'GeosansLight, Medium';text-align:start;letter-spacing:0px;word-spacing:0px;writing-mode:lr-tb;text-anchor:start;fill:#222244;fill-opacity:1;stroke:none;stroke-width:0.26458332"
       d="m -87.97642,143.58796 -12.5984,-12.63227 11.5824,-11.54853 -1.9642,0 -10.8035,10.73573 0,-10.73573 -1.3885,0 0,24.1808 1.3885,0 0,-11.4808 0.2032,-0.2032 11.6501,11.684 z" />
    <path
       inkscape:connector-curvature="0"
       id="path6606"
       style="font-style:normal;font-variant:normal;font-weight:500;font-stretch:normal;font-size:33.86666489px;line-height:0.80000001;font-family:GeosansLight;-inkscape-font-specification:'GeosansLight, Medium';text-align:start;letter-spacing:0px;word-spacing:0px;writing-mode:lr-tb;text-anchor:start;fill:#222244;fill-opacity:1;stroke:none;stroke-width:0.26458332"
       d="m -65.60957,143.99436 0,-24.5872 -1.38853,0 0,20.99733 -18.05092,-21.16666 0,24.35013 1.3547,0 0,-20.5232 z" />
    <path
       inkscape:connector-curvature="0"
       id="path6608"
       style="font-style:normal;font-variant:normal;font-weight:500;font-stretch:normal;font-size:33.86666489px;line-height:0.80000001;font-family:GeosansLight;-inkscape-font-specification:'GeosansLight, Medium';text-align:start;letter-spacing:0px;word-spacing:0px;writing-mode:lr-tb;text-anchor:start;fill:#222244;fill-opacity:1;stroke:none;stroke-width:0.26458332"
       d="m -36.86206,131.49756 q 0,-5.4864 -3.48827,-8.97467 -3.52213,-3.4544 -8.97467,-3.4544 -5.4864,0 -8.97466,3.48827 -3.4544,3.4544 -3.4544,8.9408 0,5.4864 3.48826,8.97467 3.4544,3.45439 8.9408,3.45439 5.4864,0 8.97467,-3.48826 3.48827,-3.4544 3.48827,-8.9408 z m -1.38854,0 q 0,4.91067 -3.08186,7.99253 -3.11574,3.048 -7.99254,3.048 -4.84293,0 -7.95866,-3.11573 -3.08187,-3.08187 -3.08187,-7.9248 0,-4.84293 3.11573,-7.95867 3.11574,-3.11573 7.9248,-3.11573 4.8768,0 7.99254,3.11573 3.08186,3.08187 3.08186,7.95867 z" />
    <path
       inkscape:connector-curvature="0"
       id="path6610"
       style="font-style:normal;font-variant:normal;font-weight:500;font-stretch:normal;font-size:33.86666489px;line-height:0.80000001;font-family:GeosansLight;-inkscape-font-specification:'GeosansLight, Medium';text-align:start;letter-spacing:0px;word-spacing:0px;writing-mode:lr-tb;text-anchor:start;fill:#222244;fill-opacity:1;stroke:none;stroke-width:0.26458332"
       d="m -25.95435,120.79569 0,-1.38853 -12.0904,0 0,1.38853 5.35093,0 0,22.79227 1.38854,0 0,-22.79227 z" />
  </g>
</svg>
