<?xml version="1.0" encoding="UTF-8" standalone="no"?>
<!-- Created with Inkscape (http://www.inkscape.org/) -->

<svg
   xmlns:dc="http://purl.org/dc/elements/1.1/"
   xmlns:cc="http://creativecommons.org/ns#"
   xmlns:rdf="http://www.w3.org/1999/02/22-rdf-syntax-ns#"
   xmlns:svg="http://www.w3.org/2000/svg"
   xmlns="http://www.w3.org/2000/svg"
   xmlns:sodipodi="http://sodipodi.sourceforge.net/DTD/sodipodi-0.dtd"
   xmlns:inkscape="http://www.inkscape.org/namespaces/inkscape"
   width="1068.5157"
   height="306.93265"
   viewBox="0 0 282.71145 81.209259"
   version="1.1"
   id="svg6727"
   inkscape:version="0.91 r13725"
   sodipodi:docname="logo_1l.svg"
   inkscape:export-filename="/home/yuri/Dropbox/work/logo/ZIPPER-AND-KNOT_texted.svg.png"
   inkscape:export-xdpi="300"
   inkscape:export-ydpi="300">
  <defs
     id="defs6721" />
  <sodipodi:namedview
     id="base"
     pagecolor="#ffffff"
     bordercolor="#666666"
     borderopacity="1.0"
     inkscape:pageopacity="0.0"
     inkscape:pageshadow="2"
     inkscape:zoom="0.49497475"
     inkscape:cx="229.90657"
     inkscape:cy="90.280472"
     inkscape:document-units="mm"
     inkscape:current-layer="layer1"
     showgrid="false"
     showborder="false"
     fit-margin-top="0"
     fit-margin-left="0"
     fit-margin-right="0"
     fit-margin-bottom="0"
     units="px"
     inkscape:window-width="1280"
     inkscape:window-height="778"
     inkscape:window-x="0"
     inkscape:window-y="0"
     inkscape:window-maximized="1"
     showguides="false"
     inkscape:guide-bbox="true">
    <sodipodi:guide
       position="38.529709,49.975898"
       orientation="0,1"
       id="guide6933"
       inkscape:locked="false" />
  </sodipodi:namedview>
  <metadata
     id="metadata6724">
    <rdf:RDF>
      <cc:Work
         rdf:about="">
        <dc:format>image/svg+xml</dc:format>
        <dc:type
           rdf:resource="http://purl.org/dc/dcmitype/StillImage" />
        <dc:title></dc:title>
      </cc:Work>
    </rdf:RDF>
  </metadata>
  <g
     inkscape:label="レイヤー 1"
     inkscape:groupmode="layer"
     id="layer1"
     transform="translate(88.3057,-108.62773)">
    <path
       sodipodi:nodetypes="sccccs"
       inkscape:connector-curvature="0"
       id="path14-8-9-9-4-1-5-8-9"
       d="m -74.005708,110.22773 c -7.014016,0 -12.7,5.686 -12.699992,12.7 l 4.233344,16.93336 16.933328,0 4.233328,-16.93336 c 0,-7.014 -5.685992,-12.7 -12.700008,-12.7 z"
       style="fill:#ffffff;fill-opacity:1;stroke:#ffffff;stroke-width:3.20000005;stroke-linecap:round;stroke-linejoin:round;stroke-miterlimit:4;stroke-dasharray:none;stroke-opacity:1" />
    <path
       sodipodi:nodetypes="sccccs"
       inkscape:connector-curvature="0"
       id="path14-0-4-2-4-6-1-68"
       d="m -74.005702,110.22771 c -7.014016,0 -12.7,5.686 -12.699992,12.7 l 4.233344,16.93336 16.933328,0 4.23332,-16.93336 c 0,-7.014 -5.685984,-12.7 -12.7,-12.7 z"
       style="fill:#000020;fill-opacity:1;stroke:#000020;stroke-width:0.84666663;stroke-linecap:round;stroke-linejoin:round;stroke-miterlimit:4;stroke-dasharray:none;stroke-opacity:1" />
    <path
       inkscape:connector-curvature="0"
       id="path4715-6-8-1-5-7-8-6-3"
       d="m -76.99635,136.5016 19.457152,17.96045 4.490128,-4.49013 -17.960445,-19.45716 -5.986835,5.98684"
       style="fill:#ffffff;fill-opacity:1;stroke:#ffffff;stroke-width:3.38666654;stroke-linecap:round;stroke-linejoin:round;stroke-miterlimit:4;stroke-dasharray:none;stroke-opacity:1" />
    <path
       inkscape:connector-curvature="0"
       id="path4702-0-9-6-7-9-7-4-4"
       d="m -71.009503,130.51475 a 4.2333331,4.2333331 0 0 1 1.7e-5,5.98686 4.2333331,4.2333331 0 0 1 -5.986853,-2e-5 4.2333331,4.2333331 0 0 1 3.4e-5,-5.9868 4.2333331,4.2333331 0 0 1 5.986802,-4e-5 z"
       style="fill:#ffffff;fill-opacity:1;stroke:#ffffff;stroke-width:3.38666654;stroke-linecap:round;stroke-linejoin:round;stroke-miterlimit:4;stroke-dasharray:none;stroke-opacity:1" />
    <path
       inkscape:connector-curvature="0"
       id="path4713-6-5-3-1-8-5-3-0"
       d="m -53.049059,149.97191 a 3.1749999,3.1749999 0 0 1 2.8e-5,4.49016 3.1749999,3.1749999 0 0 1 -4.490156,-3e-5 3.1749999,3.1749999 0 0 1 2.8e-5,-4.4901 3.1749999,3.1749999 0 0 1 4.4901,-3e-5 z"
       style="fill:#ffffff;fill-opacity:1;stroke:#ffffff;stroke-width:3.38666654;stroke-linecap:round;stroke-linejoin:round;stroke-miterlimit:4;stroke-dasharray:none;stroke-opacity:1" />
    <path
       inkscape:connector-curvature="0"
       id="path4715-8-3-6-1-2-8-56"
       d="m -76.99632,136.50161 19.457152,17.96045 4.490128,-4.49013 -17.960444,-19.45716 -5.986836,5.98684"
       style="fill:#000020;fill-opacity:1;stroke:#000020;stroke-width:0.84666663;stroke-linecap:round;stroke-linejoin:round;stroke-miterlimit:4;stroke-dasharray:none;stroke-opacity:1"
       inkscape:transform-center-x="1.7270508e-06"
       inkscape:transform-center-y="1.6536369" />
    <path
       inkscape:connector-curvature="0"
       id="path4702-6-4-9-0-4-6-5"
       d="m -71.009473,130.51476 a 4.2333331,4.2333331 0 0 1 1.7e-5,5.98686 4.2333331,4.2333331 0 0 1 -5.986852,-2e-5 4.2333331,4.2333331 0 0 1 -2.3e-5,-5.98685 4.2333331,4.2333331 0 0 1 5.986858,1e-5 z"
       style="fill:#ffffff;fill-opacity:1;stroke:#000020;stroke-width:0.84666663;stroke-linecap:round;stroke-linejoin:round;stroke-miterlimit:4;stroke-dasharray:none;stroke-opacity:1" />
    <path
       inkscape:connector-curvature="0"
       id="path4713-0-6-8-7-5-7-40"
       d="m -53.049029,149.97192 a 3.1749999,3.1749999 0 0 1 2.9e-5,4.49016 3.1749999,3.1749999 0 0 1 -4.490157,-3e-5 3.1749999,3.1749999 0 0 1 2.9e-5,-4.4901 3.1749999,3.1749999 0 0 1 4.490099,-3e-5 z"
       inkscape:transform-center-y="3.3072815"
       style="fill:#ffffff;fill-opacity:1;stroke:#000020;stroke-width:0.84666663;stroke-linecap:round;stroke-linejoin:round;stroke-miterlimit:4;stroke-dasharray:none;stroke-opacity:1" />
    <path
       sodipodi:nodetypes="cc"
       inkscape:connector-curvature="0"
       id="path4772-3-5-3-1-3-8-1"
       d="m -74.005714,133.51101 0,-12.86784"
       style="fill:#000020;fill-opacity:1;stroke:#ffffff;stroke-width:6.77333355;stroke-linecap:round;stroke-linejoin:round;stroke-miterlimit:4;stroke-dasharray:none;stroke-opacity:1" />
    <path
       sodipodi:nodetypes="cc"
       inkscape:connector-curvature="0"
       id="path4772-8-6-6-37-0-2-1-8"
       d="m -74.00571,133.51099 0,-15.05064"
       style="fill:#000020;fill-opacity:1;stroke:#000020;stroke-width:5.07999992;stroke-linecap:round;stroke-linejoin:round;stroke-miterlimit:4;stroke-dasharray:none;stroke-opacity:1" />
    <path
       style="display:inline;fill:none;fill-opacity:0;stroke:#ffffff;stroke-width:1.69333339;stroke-linecap:round;stroke-linejoin:round;stroke-miterlimit:4;stroke-dasharray:none;stroke-opacity:1"
       d="m -48.332198,188.97973 a 28.679161,28.679161 0 0 0 -5.66147,-34.45549"
       id="path1528-9-13-81-61"
       inkscape:connector-curvature="0" />
    <path
       style="fill:none;fill-opacity:1;stroke:#ffffff;stroke-width:1.69333339;stroke-linecap:round;stroke-linejoin:round;stroke-miterlimit:4;stroke-dasharray:none;stroke-opacity:1"
       d="M -39.187176,179.22566 A 48.286461,48.286461 0 0 0 -53.412543,153.90847"
       id="path1534-3-4-6-0"
       inkscape:connector-curvature="0" />
    <path
       style="fill:none;fill-opacity:1;stroke:#ffc080;stroke-width:0.84666663;stroke-linecap:round;stroke-linejoin:round;stroke-miterlimit:4;stroke-dasharray:none;stroke-opacity:1"
       d="m -48.346317,189.00601 a 28.679159,28.679159 0 0 0 -5.647351,-34.48177"
       id="path1528-94-4-8"
       inkscape:connector-curvature="0" />
    <path
       style="fill:none;fill-opacity:1;stroke:#ffc080;stroke-width:0.84666663;stroke-linecap:round;stroke-linejoin:round;stroke-miterlimit:4;stroke-dasharray:none;stroke-opacity:1"
       d="M -39.187176,179.22566 A 48.286461,48.286461 0 0 0 -53.412543,153.90847"
       id="path1534-1-8-15"
       inkscape:connector-curvature="0" />
    <path
       style="fill:#000000;fill-opacity:0;stroke:#ffffff;stroke-width:1.69333339;stroke-linecap:round;stroke-linejoin:round;stroke-miterlimit:4;stroke-dasharray:none;stroke-opacity:1"
       d="m -53.865155,156.27827 a 1.5874999,1.5875 0 0 0 1.508346,0.49499 1.5874999,1.5875 0 0 0 1.182867,-1.05876 1.5874999,1.5875 0 0 0 -0.325462,-1.55377"
       id="path1538-9-5-8"
       inkscape:connector-curvature="0" />
    <path
       style="fill:#000000;fill-opacity:0;stroke:#ffc080;stroke-width:0.84666663;stroke-linecap:round;stroke-linejoin:round;stroke-miterlimit:4;stroke-dasharray:none;stroke-opacity:1"
       d="m -53.866222,156.27707 a 1.5875,1.5874999 0 0 0 1.508346,0.495 1.5875,1.5874999 0 0 0 1.182867,-1.05876 1.5875,1.5874999 0 0 0 -0.325463,-1.55377"
       id="path1538-0-57-0-8"
       inkscape:connector-curvature="0" />
    <path
       inkscape:connector-curvature="0"
       id="path1368-4-1-97"
       d="m -41.652275,177.12518 a 2.1166666,2.1166666 0 0 0 2.991887,-0.0957 2.1166666,2.1166666 0 0 0 -0.09564,-2.99188 2.1166666,2.1166666 0 0 0 -2.991891,0.0956 2.1166666,2.1166666 0 0 0 0.09565,2.9919 z"
       style="fill:#ff2020;fill-opacity:1;stroke:#ffffff;stroke-width:0.42333329;stroke-linecap:round;stroke-linejoin:round;stroke-miterlimit:4;stroke-dasharray:none;stroke-opacity:1" />
    <path
       inkscape:connector-curvature="0"
       id="path1368-5-1-5-48"
       d="m -47.630591,185.34979 a 2.1166666,2.1166666 0 0 0 2.991888,-0.0957 2.1166666,2.1166666 0 0 0 -0.09564,-2.99189 2.1166666,2.1166666 0 0 0 -2.991895,0.0957 2.1166666,2.1166666 0 0 0 0.09565,2.9919 z"
       style="display:inline;fill:#ff2020;fill-opacity:1;stroke:#ffffff;stroke-width:0.42333329;stroke-linecap:round;stroke-linejoin:round;stroke-miterlimit:4;stroke-dasharray:none;stroke-opacity:1" />
    <path
       inkscape:connector-curvature="0"
       id="path6586"
       style="font-style:normal;font-variant:normal;font-weight:500;font-stretch:normal;font-size:33.86666489px;line-height:0.80000001;font-family:GeosansLight;-inkscape-font-specification:'GeosansLight, Medium';text-align:start;letter-spacing:0px;word-spacing:0px;writing-mode:lr-tb;text-anchor:start;fill:#000020;fill-opacity:1;stroke:none;stroke-width:0.26458332"
       d="m -33.41839,115.6803 -15.5448,0 0,1.4224 13.0386,0 -13.8514,22.75839 16.2898,0 0,-1.38853 -13.8176,0 z" />
    <path
       inkscape:connector-curvature="0"
       id="path6588"
       style="font-style:normal;font-variant:normal;font-weight:500;font-stretch:normal;font-size:33.86666489px;line-height:0.80000001;font-family:GeosansLight;-inkscape-font-specification:'GeosansLight, Medium';text-align:start;letter-spacing:0px;word-spacing:0px;writing-mode:lr-tb;text-anchor:start;fill:#000020;fill-opacity:1;stroke:none;stroke-width:0.26458332"
       d="m -28.50979,139.86109 0,-24.18079 -1.3546,0 0,24.18079 z" />
    <path
       inkscape:connector-curvature="0"
       id="path6590"
       style="font-style:normal;font-variant:normal;font-weight:500;font-stretch:normal;font-size:33.86666489px;line-height:0.80000001;font-family:GeosansLight;-inkscape-font-specification:'GeosansLight, Medium';text-align:start;letter-spacing:0px;word-spacing:0px;writing-mode:lr-tb;text-anchor:start;fill:#000020;fill-opacity:1;stroke:none;stroke-width:0.26458332"
       d="m -11.31689,121.6747 q 0,-2.7432 -1.89654,-4.3688 -1.89653,-1.6256 -4.6736,-1.6256 l -5.89279,0 0,24.18079 1.35469,0 0,-12.0904 4.5381,0 q 2.77707,0 4.6736,-1.69333 1.89654,-1.6256 1.89654,-4.40266 z m -1.38854,0 q 0,2.20134 -1.49013,3.48826 -1.49013,1.2192 -3.72533,1.2192 l -4.50424,0 0,-9.31333 4.50424,0 q 2.26906,0 3.6576,1.15147 1.55786,1.25307 1.55786,3.4544 z" />
    <path
       inkscape:connector-curvature="0"
       id="path6592"
       style="font-style:normal;font-variant:normal;font-weight:500;font-stretch:normal;font-size:33.86666489px;line-height:0.80000001;font-family:GeosansLight;-inkscape-font-specification:'GeosansLight, Medium';text-align:start;letter-spacing:0px;word-spacing:0px;writing-mode:lr-tb;text-anchor:start;fill:#000020;fill-opacity:1;stroke:none;stroke-width:0.26458332"
       d="m 4.45889,121.6747 q 0,-2.7432 -1.89654,-4.3688 -1.89653,-1.6256 -4.6736,-1.6256 l -5.8928,0 0,24.18079 1.35467,0 0,-12.0904 4.53813,0 q 2.77707,0 4.6736,-1.69333 1.89654,-1.6256 1.89654,-4.40266 z m -1.38854,0 q 0,2.20134 -1.49013,3.48826 -1.49013,1.2192 -3.72533,1.2192 l -4.50427,0 0,-9.31333 4.50427,0 q 2.26906,0 3.6576,1.15147 1.55786,1.25307 1.55786,3.4544 z" />
    <path
       inkscape:connector-curvature="0"
       id="path6594"
       style="font-style:normal;font-variant:normal;font-weight:500;font-stretch:normal;font-size:33.86666489px;line-height:0.80000001;font-family:GeosansLight;-inkscape-font-specification:'GeosansLight, Medium';text-align:start;letter-spacing:0px;word-spacing:0px;writing-mode:lr-tb;text-anchor:start;fill:#000020;fill-opacity:1;stroke:none;stroke-width:0.26458332"
       d="m 19.41711,139.86109 0,-1.38853 -10.22774,0 0,-11.10827 10.22774,0 0,-1.49013 -10.22774,0 0,-8.80533 10.22774,0 0,-1.38853 -11.61627,0 0,24.18079 z" />
    <path
       inkscape:connector-curvature="0"
       id="path6596"
       style="font-style:normal;font-variant:normal;font-weight:500;font-stretch:normal;font-size:33.86666489px;line-height:0.80000001;font-family:GeosansLight;-inkscape-font-specification:'GeosansLight, Medium';text-align:start;letter-spacing:0px;word-spacing:0px;writing-mode:lr-tb;text-anchor:start;fill:#000020;fill-opacity:1;stroke:none;stroke-width:0.26458332"
       d="m 35.53341,139.86109 -7.75547,-12.0904 q 1.45627,0 2.67547,-0.33866 1.2192,-0.37254 2.09973,-1.1176 0.9144,-0.74507 1.38853,-1.89654 0.508,-1.15146 0.508,-2.74319 0,-1.45627 -0.54186,-2.57387 -0.508,-1.1176 -1.38854,-1.86266 -0.88053,-0.77894 -2.09973,-1.15147 -1.2192,-0.4064 -2.57387,-0.4064 l -5.588,0 0,24.18079 1.35467,0 0,-12.0904 2.60773,0 7.68774,12.0904 z m -2.50614,-18.22026 q 0,2.30293 -1.35466,3.52213 -1.3208,1.2192 -3.48827,1.2192 l -4.572,0 0,-9.31333 4.19947,0 q 1.08373,0 2.032,0.3048 0.94826,0.27094 1.65946,0.84667 0.7112,0.54187 1.1176,1.4224 0.4064,0.84667 0.4064,1.99813 z" />
    <path
       inkscape:connector-curvature="0"
       id="path6598"
       style="font-style:normal;font-variant:normal;font-weight:500;font-stretch:normal;font-size:33.86666489px;line-height:0.80000001;font-family:GeosansLight;-inkscape-font-specification:'GeosansLight, Medium';text-align:start;letter-spacing:0px;word-spacing:0px;writing-mode:lr-tb;text-anchor:start;fill:#000020;fill-opacity:1;stroke:none;stroke-width:0.26458332"
       d="m 64.366342,139.86109 -9.6859,-24.95974 -9.652,24.95974 1.3547,0 2.8109,-7.24747 11.0067,0 2.7771,7.24747 z m -4.7413,-8.636 -9.8891,0 4.9445,-12.8016 z" />
    <path
       inkscape:connector-curvature="0"
       id="path6600"
       style="font-style:normal;font-variant:normal;font-weight:500;font-stretch:normal;font-size:33.86666489px;line-height:0.80000001;font-family:GeosansLight;-inkscape-font-specification:'GeosansLight, Medium';text-align:start;letter-spacing:0px;word-spacing:0px;writing-mode:lr-tb;text-anchor:start;fill:#000020;fill-opacity:1;stroke:none;stroke-width:0.26458332"
       d="m 85.869572,140.2675 0,-24.5872 -1.38854,0 0,20.99733 -18.05089,-21.16667 0,24.35014 1.3546,0 0,-20.5232 z" />
    <path
       inkscape:connector-curvature="0"
       id="path6602"
       style="font-style:normal;font-variant:normal;font-weight:500;font-stretch:normal;font-size:33.86666489px;line-height:0.80000001;font-family:GeosansLight;-inkscape-font-specification:'GeosansLight, Medium';text-align:start;letter-spacing:0px;word-spacing:0px;writing-mode:lr-tb;text-anchor:start;fill:#000020;fill-opacity:1;stroke:none;stroke-width:0.26458332"
       d="m 107.71648,127.73682 q 0,-4.9784 -2.87867,-8.39893 -3.048,-3.6576 -7.924798,-3.6576 l -8.06026,0 0,24.1808 8.06026,0 q 4.910668,0 7.958668,-3.6576 2.8448,-3.4544 2.8448,-8.46667 z m -1.38854,0 q 0,4.9784 -2.9464,7.95867 -2.7432,2.77707 -6.468528,2.77707 l -6.7056,0 0,-21.4376 6.7056,0 q 4.301068,0 6.942668,3.25119 2.47226,3.01414 2.47226,7.45067 z" />
    <path
       inkscape:connector-curvature="0"
       id="path6604"
       style="font-style:normal;font-variant:normal;font-weight:500;font-stretch:normal;font-size:33.86666489px;line-height:0.80000001;font-family:GeosansLight;-inkscape-font-specification:'GeosansLight, Medium';text-align:start;letter-spacing:0px;word-spacing:0px;writing-mode:lr-tb;text-anchor:start;fill:#000020;fill-opacity:1;stroke:none;stroke-width:0.26458332"
       d="m 132.3837,139.86109 -12.5984,-12.63227 11.5824,-11.54853 -1.9642,0 -10.8035,10.73573 0,-10.73573 -1.3885,0 0,24.1808 1.3885,0 0,-11.48079 0.2032,-0.20321 11.6501,11.684 z" />
    <path
       inkscape:connector-curvature="0"
       id="path6606"
       style="font-style:normal;font-variant:normal;font-weight:500;font-stretch:normal;font-size:33.86666489px;line-height:0.80000001;font-family:GeosansLight;-inkscape-font-specification:'GeosansLight, Medium';text-align:start;letter-spacing:0px;word-spacing:0px;writing-mode:lr-tb;text-anchor:start;fill:#000020;fill-opacity:1;stroke:none;stroke-width:0.26458332"
       d="m 154.75055,140.26749 0,-24.5872 -1.38853,0 0,20.99733 -18.05092,-21.16666 0,24.35013 1.3547,0 0,-20.5232 z" />
    <path
       inkscape:connector-curvature="0"
       id="path6608"
       style="font-style:normal;font-variant:normal;font-weight:500;font-stretch:normal;font-size:33.86666489px;line-height:0.80000001;font-family:GeosansLight;-inkscape-font-specification:'GeosansLight, Medium';text-align:start;letter-spacing:0px;word-spacing:0px;writing-mode:lr-tb;text-anchor:start;fill:#000020;fill-opacity:1;stroke:none;stroke-width:0.26458332"
       d="m 183.49806,127.7707 q 0,-5.4864 -3.48827,-8.97467 -3.52213,-3.4544 -8.97467,-3.4544 -5.4864,0 -8.97466,3.48827 -3.4544,3.4544 -3.4544,8.9408 0,5.4864 3.48826,8.97467 3.4544,3.45438 8.9408,3.45438 5.4864,0 8.97467,-3.48826 3.48827,-3.45439 3.48827,-8.94079 z m -1.38854,0 q 0,4.91067 -3.08186,7.99252 -3.11574,3.048 -7.99254,3.048 -4.84293,0 -7.95866,-3.11573 -3.08187,-3.08187 -3.08187,-7.9248 0,-4.84293 3.11573,-7.95867 3.11574,-3.11573 7.9248,-3.11573 4.8768,0 7.99254,3.11573 3.08186,3.08187 3.08186,7.95868 z" />
    <path
       inkscape:connector-curvature="0"
       id="path6610"
       style="font-style:normal;font-variant:normal;font-weight:500;font-stretch:normal;font-size:33.86666489px;line-height:0.80000001;font-family:GeosansLight;-inkscape-font-specification:'GeosansLight, Medium';text-align:start;letter-spacing:0px;word-spacing:0px;writing-mode:lr-tb;text-anchor:start;fill:#000020;fill-opacity:1;stroke:none;stroke-width:0.26458332"
       d="m 194.40577,117.06882 0,-1.38853 -12.0904,0 0,1.38853 5.35093,0 0,22.79227 1.38854,0 0,-22.79227 z" />
  </g>
</svg>
