<svg xmlns="http://www.w3.org/2000/svg" width="542.885" height="306.933" viewBox="0 0 143.638 81.209"><path fill="#fff" stroke="red" stroke-width=".113" stroke-linecap="square" d="M0 0h143.638v81.21H0z"/><path d="M14.3 1.6C7.286 1.6 1.6 7.286 1.6 14.3l4.233 16.933h16.934L27 14.3c0-7.014-5.686-12.7-12.7-12.7z" fill="#fff" stroke="#fff" stroke-width="3.2" stroke-linecap="round" stroke-linejoin="round"/><path d="M14.3 1.6C7.286 1.6 1.6 7.286 1.6 14.3l4.233 16.933h16.934L27 14.3c0-7.014-5.686-12.7-12.7-12.7z" fill="#224" stroke="#224" stroke-width=".847" stroke-linecap="round" stroke-linejoin="round"/><path d="M11.31 27.874l19.457 17.96 4.49-4.49-17.96-19.457-5.988 5.987" fill="#fff" stroke="#fff" stroke-width="3.387" stroke-linecap="round" stroke-linejoin="round"/><path d="M17.296 21.887a4.233 4.233 0 0 1 0 5.987 4.233 4.233 0 0 1-5.987 0 4.233 4.233 0 0 1 0-5.987 4.233 4.233 0 0 1 5.987 0zM35.257 41.344a3.175 3.175 0 0 1 0 4.49 3.175 3.175 0 0 1-4.49 0 3.175 3.175 0 0 1 0-4.49 3.175 3.175 0 0 1 4.49 0z" fill="#fff" stroke="#fff" stroke-width="3.387" stroke-linecap="round" stroke-linejoin="round"/><path d="M11.31 27.874l19.457 17.96 4.49-4.49-17.96-19.457-5.988 5.987" fill="#224" stroke="#224" stroke-width=".847" stroke-linecap="round" stroke-linejoin="round"/><path d="M17.296 21.887a4.233 4.233 0 0 1 0 5.987 4.233 4.233 0 0 1-5.987 0 4.233 4.233 0 0 1 0-5.987 4.233 4.233 0 0 1 5.987 0zM35.257 41.344a3.175 3.175 0 0 1 0 4.49 3.175 3.175 0 0 1-4.49 0 3.175 3.175 0 0 1 0-4.49 3.175 3.175 0 0 1 4.49 0z" fill="#fff" stroke="#224" stroke-width=".847" stroke-linecap="round" stroke-linejoin="round"/><path d="M14.3 24.883V12.015" fill="#224" stroke="#fff" stroke-width="6.773" stroke-linecap="round" stroke-linejoin="round"/><path d="M14.3 24.883V9.833" fill="#224" stroke="#224" stroke-width="5.08" stroke-linecap="round" stroke-linejoin="round"/><path d="M39.973 80.352a28.68 28.68 0 0 0-5.661-34.456M49.119 70.598A48.286 48.286 0 0 0 34.893 45.28" fill="none" stroke="#fff" stroke-width="1.693" stroke-linecap="round" stroke-linejoin="round"/><path d="M39.96 80.378a28.68 28.68 0 0 0-5.648-34.482M49.119 70.598A48.286 48.286 0 0 0 34.893 45.28" fill="none" stroke="#ffc080" stroke-width=".847" stroke-linecap="round" stroke-linejoin="round"/><path d="M34.44 47.65a1.587 1.587 0 0 0 1.509.495 1.587 1.587 0 0 0 1.183-1.058 1.587 1.587 0 0 0-.326-1.554" stroke="#fff" stroke-width="1.693" stroke-linecap="round" stroke-linejoin="round" fill="none"/><path d="M34.44 47.65a1.587 1.587 NaN 0 0 1.508.494 1.587 1.587 NaN 0 0 1.183-1.059 1.587 1.587 NaN 0 0-.326-1.553" stroke="#ffc080" stroke-width=".847" stroke-linecap="round" stroke-linejoin="round" fill="none"/><path d="M46.653 68.497a2.117 2.117 0 0 0 2.992-.095 2.117 2.117 0 0 0-.095-2.992 2.117 2.117 0 0 0-2.992.095 2.117 2.117 0 0 0 .095 2.992zM40.675 76.722a2.117 2.117 0 0 0 2.992-.096 2.117 2.117 0 0 0-.096-2.992 2.117 2.117 0 0 0-2.992.096 2.117 2.117 0 0 0 .096 2.992z" fill="#f84008" stroke="#fff" stroke-width=".423" stroke-linecap="round" stroke-linejoin="round"/><path style="line-height:.80000001;-inkscape-font-specification:'GeosansLight, Medium';text-align:start" d="M74.686 1.593H59.142v1.422H72.18L58.33 25.774h16.29v-1.389H60.8zM79.595 25.774V1.593H78.24v24.18zM96.788 7.587q0-2.743-1.897-4.368-1.896-1.626-4.673-1.626h-5.893v24.18h1.355v-12.09h4.538q2.777 0 4.673-1.693 1.897-1.626 1.897-4.403zm-1.389 0q0 2.202-1.49 3.489-1.49 1.219-3.725 1.219H85.68V2.982h4.504q2.269 0 3.658 1.151 1.557 1.253 1.557 3.454zM112.564 7.587q0-2.743-1.897-4.368-1.896-1.626-4.673-1.626H100.1v24.18h1.354v-12.09h4.539q2.777 0 4.673-1.693 1.897-1.626 1.897-4.403zm-1.389 0q0 2.202-1.49 3.489-1.49 1.219-3.725 1.219h-4.505V2.982h4.505q2.269 0 3.657 1.151 1.558 1.253 1.558 3.454zM127.522 25.774v-1.389h-10.228V13.277h10.228v-1.49h-10.228V2.982h10.228V1.593h-11.616v24.18zM143.638 25.774l-7.755-12.09q1.456 0 2.675-.34 1.22-.372 2.1-1.117.914-.745 1.388-1.896.508-1.152.508-2.744 0-1.456-.541-2.573-.508-1.118-1.389-1.863-.88-.78-2.1-1.152-1.219-.406-2.574-.406h-5.588v24.18h1.355v-12.09h2.608l7.688 12.09zm-2.506-18.22q0 2.302-1.355 3.522-1.32 1.219-3.488 1.219h-4.572V2.982h4.2q1.083 0 2.032.304.948.271 1.66.847.71.542 1.117 1.422.406.847.406 1.999z" font-weight="500" font-size="33.867" font-family="GeosansLight" letter-spacing="0" word-spacing="0" fill="#224"/><path style="line-height:.80000001;-inkscape-font-specification:'GeosansLight, Medium';text-align:start" d="M76.177 52.867l-9.686-24.96-9.652 24.96h1.354l2.811-7.247h11.007l2.777 7.247zm-4.742-8.636h-9.889l4.945-12.801z" font-weight="500" font-size="33.867" font-family="GeosansLight" letter-spacing="0" word-spacing="0" fill="#f84008"/><path style="line-height:.80000001;-inkscape-font-specification:'GeosansLight, Medium';text-align:start" d="M97.68 53.274V28.686H96.29v20.998l-18.05-21.167v24.35h1.354V32.344zM119.527 40.743q0-4.979-2.879-8.4-3.048-3.657-7.925-3.657h-8.06v24.181h8.06q4.911 0 7.959-3.657 2.845-3.455 2.845-8.467zm-1.389 0q0 4.978-2.946 7.959-2.743 2.777-6.469 2.777h-6.705V30.04h6.705q4.301 0 6.943 3.251 2.472 3.014 2.472 7.45zM75.313 79.96L62.715 67.328 74.297 55.78h-1.964L61.529 66.515V55.78h-1.388v24.18h1.388V68.48l.203-.204 11.65 11.684zM97.68 80.367V55.78H96.29v20.997L78.241 55.61v24.35h1.354V59.437zM126.427 67.87q0-5.486-3.488-8.975-3.522-3.454-8.975-3.454-5.486 0-8.974 3.488-3.455 3.455-3.455 8.941 0 5.486 3.489 8.975 3.454 3.454 8.94 3.454 5.487 0 8.975-3.488 3.488-3.455 3.488-8.941zm-1.388 0q0 4.91-3.082 7.993-3.116 3.048-7.993 3.048-4.843 0-7.958-3.116-3.082-3.082-3.082-7.925t3.116-7.959q3.115-3.115 7.924-3.115 4.877 0 7.993 3.115 3.082 3.082 3.082 7.959zM137.335 57.168V55.78h-12.09v1.388h5.35V79.96h1.39V57.168z" font-weight="500" font-size="33.867" font-family="GeosansLight" letter-spacing="0" word-spacing="0" fill="#224"/></svg>