<?xml version="1.0" encoding="UTF-8" standalone="no"?>
<!-- Created with Inkscape (http://www.inkscape.org/) -->

<svg
   xmlns:dc="http://purl.org/dc/elements/1.1/"
   xmlns:cc="http://creativecommons.org/ns#"
   xmlns:rdf="http://www.w3.org/1999/02/22-rdf-syntax-ns#"
   xmlns:svg="http://www.w3.org/2000/svg"
   xmlns="http://www.w3.org/2000/svg"
   xmlns:sodipodi="http://sodipodi.sourceforge.net/DTD/sodipodi-0.dtd"
   xmlns:inkscape="http://www.inkscape.org/namespaces/inkscape"
   width="50.428558mm"
   height="81.209259mm"
   viewBox="0 0 50.428558 81.209257"
   version="1.1"
   id="svg1894"
   inkscape:version="0.91 r13725"
   sodipodi:docname="logo.svg"
   inkscape:export-filename="/home/yuri/Dropbox/work/logo/ZIPPER-AND-KNOT.svg.png"
   inkscape:export-xdpi="300"
   inkscape:export-ydpi="300">
  <defs
     id="defs1888" />
  <sodipodi:namedview
     id="base"
     pagecolor="#ffffff"
     bordercolor="#666666"
     borderopacity="1.0"
     inkscape:pageopacity="0.0"
     inkscape:pageshadow="2"
     inkscape:zoom="1.4"
     inkscape:cx="63.602591"
     inkscape:cy="146.98269"
     inkscape:document-units="mm"
     inkscape:current-layer="layer1"
     showgrid="false"
     inkscape:window-width="1280"
     inkscape:window-height="778"
     inkscape:window-x="0"
     inkscape:window-y="0"
     inkscape:window-maximized="1"
     fit-margin-top="0"
     fit-margin-left="0"
     fit-margin-right="0"
     fit-margin-bottom="0"
     inkscape:object-paths="true"
     inkscape:snap-intersection-paths="true"
     inkscape:snap-smooth-nodes="true"
     inkscape:snap-midpoints="true"
     inkscape:snap-bbox="true"
     inkscape:bbox-paths="true" />
  <metadata
     id="metadata1891">
    <rdf:RDF>
      <cc:Work
         rdf:about="">
        <dc:format>image/svg+xml</dc:format>
        <dc:type
           rdf:resource="http://purl.org/dc/dcmitype/StillImage" />
        <dc:title></dc:title>
      </cc:Work>
    </rdf:RDF>
  </metadata>
  <g
     inkscape:label="レイヤー 1"
     inkscape:groupmode="layer"
     id="layer1"
     transform="translate(-20.14286,-136.95488)">
    <path
       style="fill:#ffffff;fill-opacity:1;stroke:#ffffff;stroke-width:3.20000005;stroke-linecap:round;stroke-linejoin:round;stroke-miterlimit:4;stroke-dasharray:none;stroke-opacity:1"
       d="m 34.442852,138.55488 c -7.014016,0 -12.7,5.686 -12.699992,12.7 l 4.233344,16.93336 16.933328,0 4.233328,-16.93336 c 0,-7.014 -5.685992,-12.7 -12.700008,-12.7 z"
       id="path14-8-9-9-4-1-5"
       inkscape:connector-curvature="0"
       sodipodi:nodetypes="sccccs" />
    <path
       style="fill:#000020;fill-opacity:1;stroke:#000020;stroke-width:0.84666663;stroke-linecap:round;stroke-linejoin:round;stroke-miterlimit:4;stroke-dasharray:none;stroke-opacity:1"
       d="m 34.442858,138.55486 c -7.014016,0 -12.7,5.686 -12.699992,12.7 l 4.233344,16.93336 h 16.933328 l 4.23332,-16.93336 c 0,-7.014 -5.685984,-12.7 -12.7,-12.7 z"
       id="path14-0-4-2-4-6"
       inkscape:connector-curvature="0"
       sodipodi:nodetypes="sccccs" />
    <path
       style="fill:#ffffff;fill-opacity:1;stroke:#ffffff;stroke-width:3.38666654;stroke-linecap:round;stroke-linejoin:round;stroke-miterlimit:4;stroke-dasharray:none;stroke-opacity:1"
       d="m 31.45225,164.82875 19.457152,17.96045 4.490128,-4.49013 -17.960445,-19.45716 -5.986835,5.98684"
       id="path4715-6-8-1-5-7-8"
       inkscape:connector-curvature="0" />
    <path
       style="fill:#ffffff;fill-opacity:1;stroke:#ffffff;stroke-width:3.38666654;stroke-linecap:round;stroke-linejoin:round;stroke-miterlimit:4;stroke-dasharray:none;stroke-opacity:1"
       d="m 37.439097,158.8419 a 4.2333331,4.2333331 0 0 1 1.7e-5,5.98686 4.2333331,4.2333331 0 0 1 -5.986853,-2e-5 4.2333331,4.2333331 0 0 1 3.4e-5,-5.9868 4.2333331,4.2333331 0 0 1 5.986802,-4e-5 z"
       id="path4702-0-9-6-7-9-7"
       inkscape:connector-curvature="0" />
    <path
       style="fill:#ffffff;fill-opacity:1;stroke:#ffffff;stroke-width:3.38666654;stroke-linecap:round;stroke-linejoin:round;stroke-miterlimit:4;stroke-dasharray:none;stroke-opacity:1"
       d="m 55.399541,178.29906 a 3.1749999,3.1749999 0 0 1 2.8e-5,4.49016 3.1749999,3.1749999 0 0 1 -4.490156,-3e-5 3.1749999,3.1749999 0 0 1 2.8e-5,-4.4901 3.1749999,3.1749999 0 0 1 4.4901,-3e-5 z"
       id="path4713-6-5-3-1-8-5"
       inkscape:connector-curvature="0" />
    <path
       inkscape:transform-center-y="1.6536369"
       inkscape:transform-center-x="1.7270508e-06"
       style="fill:#000020;fill-opacity:1;stroke:#000020;stroke-width:0.84666663;stroke-linecap:round;stroke-linejoin:round;stroke-miterlimit:4;stroke-dasharray:none;stroke-opacity:1"
       d="m 31.45228,164.82876 19.457152,17.96045 4.490128,-4.49013 -17.960444,-19.45716 -5.986836,5.98684"
       id="path4715-8-3-6-1-2"
       inkscape:connector-curvature="0" />
    <path
       style="fill:#ffffff;fill-opacity:1;stroke:#000020;stroke-width:0.84666663;stroke-linecap:round;stroke-linejoin:round;stroke-miterlimit:4;stroke-dasharray:none;stroke-opacity:1"
       d="m 37.439127,158.84191 a 4.2333331,4.2333331 0 0 1 1.7e-5,5.98686 4.2333331,4.2333331 0 0 1 -5.986852,-2e-5 4.2333331,4.2333331 0 0 1 -2.3e-5,-5.98685 4.2333331,4.2333331 0 0 1 5.986858,1e-5 z"
       id="path4702-6-4-9-0-4"
       inkscape:connector-curvature="0" />
    <path
       style="fill:#ffffff;fill-opacity:1;stroke:#000020;stroke-width:0.84666663;stroke-linecap:round;stroke-linejoin:round;stroke-miterlimit:4;stroke-dasharray:none;stroke-opacity:1"
       inkscape:transform-center-y="3.3072815"
       d="m 55.399571,178.29907 a 3.1749999,3.1749999 0 0 1 2.9e-5,4.49016 3.1749999,3.1749999 0 0 1 -4.490157,-3e-5 3.1749999,3.1749999 0 0 1 2.9e-5,-4.4901 3.1749999,3.1749999 0 0 1 4.490099,-3e-5 z"
       id="path4713-0-6-8-7-5"
       inkscape:connector-curvature="0" />
    <path
       style="fill:#000020;fill-opacity:1;stroke:#ffffff;stroke-width:6.77333355;stroke-linecap:round;stroke-linejoin:round;stroke-miterlimit:4;stroke-dasharray:none;stroke-opacity:1"
       d="m 34.442846,161.83816 0,-12.86784"
       id="path4772-3-5-3-1-3"
       inkscape:connector-curvature="0"
       sodipodi:nodetypes="cc" />
    <path
       style="fill:#000020;fill-opacity:1;stroke:#000020;stroke-width:5.07999992;stroke-linecap:round;stroke-linejoin:round;stroke-miterlimit:4;stroke-dasharray:none;stroke-opacity:1"
       d="M 34.44285,161.83814 V 146.7875"
       id="path4772-8-6-6-37-0-2"
       inkscape:connector-curvature="0"
       sodipodi:nodetypes="cc" />
    <path
       inkscape:connector-curvature="0"
       id="path1528-9-13"
       d="m 60.116362,217.30683 a 28.679161,28.679161 0 0 0 -5.66147,-34.45549"
       style="display:inline;fill:none;fill-opacity:0;stroke:#ffffff;stroke-width:1.69333339;stroke-linecap:round;stroke-linejoin:round;stroke-miterlimit:4;stroke-dasharray:none;stroke-opacity:1" />
    <path
       inkscape:connector-curvature="0"
       id="path1534-3-4"
       d="M 69.261384,207.55276 A 48.286461,48.286461 0 0 0 55.036017,182.23557"
       style="fill:none;fill-opacity:1;stroke:#ffffff;stroke-width:1.69333339;stroke-linecap:round;stroke-linejoin:round;stroke-miterlimit:4;stroke-dasharray:none;stroke-opacity:1" />
    <path
       inkscape:connector-curvature="0"
       id="path1528-94"
       d="M 60.102243,217.33311 A 28.679159,28.679159 0 0 0 54.454892,182.85134"
       style="fill:none;fill-opacity:1;stroke:#ffc080;stroke-width:0.84666663;stroke-linecap:round;stroke-linejoin:round;stroke-miterlimit:4;stroke-dasharray:none;stroke-opacity:1" />
    <path
       inkscape:connector-curvature="0"
       id="path1534-1"
       d="M 69.261384,207.55276 A 48.286461,48.286461 0 0 0 55.036017,182.23557"
       style="fill:none;fill-opacity:1;stroke:#ffc080;stroke-width:0.84666663;stroke-linecap:round;stroke-linejoin:round;stroke-miterlimit:4;stroke-dasharray:none;stroke-opacity:1" />
    <path
       inkscape:connector-curvature="0"
       id="path1538-9"
       d="m 54.583405,184.60537 a 1.5874999,1.5875 0 0 0 1.508346,0.49499 1.5874999,1.5875 0 0 0 1.182867,-1.05876 1.5874999,1.5875 0 0 0 -0.325462,-1.55377"
       style="fill:#000000;fill-opacity:0;stroke:#ffffff;stroke-width:1.69333339;stroke-linecap:round;stroke-linejoin:round;stroke-miterlimit:4;stroke-dasharray:none;stroke-opacity:1" />
    <path
       inkscape:connector-curvature="0"
       id="path1538-0-57"
       d="m 54.582338,184.60417 a 1.5875,1.5874999 0 0 0 1.508346,0.495 1.5875,1.5874999 0 0 0 1.182867,-1.05876 1.5875,1.5874999 0 0 0 -0.325463,-1.55377"
       style="fill:#000000;fill-opacity:0;stroke:#ffc080;stroke-width:0.84666663;stroke-linecap:round;stroke-linejoin:round;stroke-miterlimit:4;stroke-dasharray:none;stroke-opacity:1" />
    <path
       transform="matrix(-0.68415183,0.72933962,0.72933962,0.68415183,0,0)"
       style="fill:#ff2020;fill-opacity:1;stroke:#ffffff;stroke-width:0.42333329;stroke-linecap:round;stroke-linejoin:round;stroke-miterlimit:4;stroke-dasharray:none;stroke-opacity:1"
       d="m 104.14572,189.27776 a 2.1166666,2.1166666 0 0 1 -2.11667,2.11666 2.1166666,2.1166666 0 0 1 -2.116664,-2.11666 2.1166666,2.1166666 0 0 1 2.116664,-2.11667 2.1166666,2.1166666 0 0 1 2.11667,2.11667 z"
       id="path1368-4" />
    <path
       transform="matrix(-0.68415183,0.72933962,0.72933962,0.68415183,0,0)"
       style="display:inline;fill:#ff2020;fill-opacity:1;stroke:#ffffff;stroke-width:0.42333329;stroke-linecap:round;stroke-linejoin:round;stroke-miterlimit:4;stroke-dasharray:none;stroke-opacity:1"
       d="m 114.23433,190.54442 a 2.1166666,2.1166666 0 0 1 -2.11667,2.11666 2.1166666,2.1166666 0 0 1 -2.11667,-2.11666 2.1166666,2.1166666 0 0 1 2.11667,-2.11667 2.1166666,2.1166666 0 0 1 2.11667,2.11667 z"
       id="path1368-5-1" />
  </g>
</svg>
