<svg xmlns="http://www.w3.org/2000/svg" width="195" height="310" viewBox="0 0 51.594 82.021"><g stroke-linecap="round" stroke-linejoin="round"><path d="M14.552 2.117c-7.014 0-12.7 5.686-12.7 12.7L6.085 31.75H23.02l4.233-16.933c0-7.014-5.686-12.7-12.7-12.7z" fill="#fff" stroke="#fff" stroke-width="3.2"/><path d="M14.552 2.117c-7.014 0-12.7 5.686-12.7 12.7L6.085 31.75H23.02l4.233-16.933c0-7.014-5.686-12.7-12.7-12.7z" fill="#224" stroke="#224" stroke-width=".847"/><path d="M11.561 28.39L31.02 46.352l4.49-4.49-17.96-19.457-5.988 5.987" fill="#fff" stroke="#fff" stroke-width="3.387"/><path d="M17.548 22.404a4.233 4.233 0 0 1 0 5.987 4.233 4.233 0 0 1-5.987 0 4.233 4.233 0 0 1 0-5.987 4.233 4.233 0 0 1 5.987 0zM35.509 41.86a3.175 3.175 0 0 1 0 4.491 3.175 3.175 0 0 1-4.49 0 3.175 3.175 0 0 1 0-4.49 3.175 3.175 0 0 1 4.49 0z" fill="#fff" stroke="#fff" stroke-width="3.387"/><path d="M11.561 28.39L31.02 46.352l4.49-4.49-17.96-19.457-5.988 5.987" fill="#224" stroke="#224" stroke-width=".847"/><path d="M17.548 22.404a4.233 4.233 0 0 1 0 5.987 4.233 4.233 0 0 1-5.986 0 4.233 4.233 0 0 1 0-5.987 4.233 4.233 0 0 1 5.986 0zM35.509 41.86a3.175 3.175 0 0 1 0 4.491 3.175 3.175 0 0 1-4.49 0 3.175 3.175 0 0 1 0-4.49 3.175 3.175 0 0 1 4.49 0z" fill="#fff" stroke="#224" stroke-width=".847"/><path d="M14.552 25.4V12.532" fill="#224" stroke="#fff" stroke-width="6.773"/><path d="M14.552 25.4V10.35" fill="#224" stroke="#224" stroke-width="5.08"/><path d="M40.226 80.869a28.68 28.68 0 0 0-5.662-34.456M49.37 71.115a48.286 48.286 0 0 0-14.225-25.318" fill="none" stroke="#fff" stroke-width="1.693"/><path d="M40.211 80.895a28.68 28.68 0 0 0-5.647-34.482M49.37 71.115a48.286 48.286 0 0 0-14.225-25.318" fill="none" stroke="#ffc080" stroke-width=".847"/><path d="M34.693 48.167a1.587 1.587 0 0 0 1.508.495 1.587 1.587 0 0 0 1.183-1.059 1.587 1.587 0 0 0-.326-1.553" stroke="#fff" stroke-width="1.693" fill="none"/><path d="M34.692 48.166a1.587 1.587 NaN 0 0 1.508.495 1.587 1.587 NaN 0 0 1.183-1.059 1.587 1.587 NaN 0 0-.326-1.554" stroke="#ffc080" stroke-width=".847" fill="none"/><path d="M46.905 69.014a2.117 2.117 0 0 0 2.992-.096 2.117 2.117 0 0 0-.095-2.991 2.117 2.117 0 0 0-2.992.095 2.117 2.117 0 0 0 .095 2.992zM40.927 77.239a2.117 2.117 0 0 0 2.992-.096 2.117 2.117 0 0 0-.096-2.992 2.117 2.117 0 0 0-2.991.096 2.117 2.117 0 0 0 .095 2.992z" fill="#f74008" stroke="#fff" stroke-width=".423"/></g></svg>