<svg xmlns="http://www.w3.org/2000/svg" width="922.892" height="95.872" viewBox="0 0 244.182 25.366"><g font-weight="500" font-size="33.867" font-family="GeosansLight" letter-spacing="0" word-spacing="0"><path style="line-height:.80000001;-inkscape-font-specification:'GeosansLight, Medium';text-align:start" d="M16.358.779H.813v1.422H13.85L0 24.96h16.29V23.57H2.472zM21.266 24.96V.779h-1.354v24.18zM38.46 6.773q0-2.743-1.897-4.368Q34.666.779 31.889.779h-5.893v24.18h1.355V12.87h4.538q2.777 0 4.674-1.693 1.896-1.626 1.896-4.403zm-1.39 0q0 2.202-1.49 3.489-1.49 1.219-3.725 1.219h-4.504V2.167h4.504q2.27 0 3.658 1.152 1.558 1.253 1.558 3.454zM54.235 6.773q0-2.743-1.897-4.368Q50.442.779 47.665.779h-5.893v24.18h1.355V12.87h4.538q2.777 0 4.673-1.693 1.897-1.626 1.897-4.403zm-1.389 0q0 2.202-1.49 3.489-1.49 1.219-3.725 1.219h-4.504V2.167h4.504q2.269 0 3.657 1.152 1.558 1.253 1.558 3.454zM69.193 24.96V23.57H58.965V12.463h10.228v-1.49H58.965V2.167h10.228V.78H57.577v24.18zM85.31 24.96l-7.756-12.09q1.456 0 2.675-.34 1.22-.372 2.1-1.117.915-.745 1.389-1.896.508-1.152.508-2.744 0-1.456-.542-2.574-.508-1.117-1.389-1.862-.88-.78-2.1-1.152Q78.977.78 77.623.78h-5.588v24.18h1.354V12.87h2.608l7.688 12.09zM82.802 6.74q0 2.302-1.354 3.522-1.321 1.219-3.489 1.219h-4.572V2.167h4.2q1.084 0 2.032.305.948.271 1.66.847.71.542 1.117 1.422.406.847.406 1.998z" fill="#224"/><path style="line-height:.80000001;-inkscape-font-specification:'GeosansLight, Medium';text-align:start" d="M114.142 24.96L104.456 0l-9.652 24.96h1.355l2.811-7.248h11.007l2.777 7.248zm-4.741-8.636h-9.89l4.945-12.802z" fill="#ef4625"/><path style="line-height:.80000001;-inkscape-font-specification:'GeosansLight, Medium';text-align:start" d="M135.646 25.366V.78h-1.389v20.997L116.207.61v24.35h1.354V4.437zM157.492 12.835q0-4.978-2.878-8.398-3.048-3.658-7.925-3.658h-8.06v24.18h8.06q4.91 0 7.959-3.657 2.844-3.454 2.844-8.467zm-1.388 0q0 4.979-2.946 7.96-2.744 2.776-6.469 2.776h-6.706V2.134h6.706q4.301 0 6.943 3.25 2.472 3.015 2.472 7.451zM182.16 24.96L169.56 12.327 181.144.78h-1.965l-10.803 10.736V.779h-1.389v24.18h1.389V13.48l.203-.203 11.65 11.684zM204.527 25.366V.78h-1.389v20.997L185.088.61v24.35h1.354V4.437zM233.274 12.87q0-5.487-3.488-8.975Q226.264.44 220.81.44q-5.486 0-8.975 3.489-3.454 3.454-3.454 8.94 0 5.487 3.488 8.975 3.455 3.454 8.941 3.454 5.487 0 8.975-3.488 3.488-3.454 3.488-8.94zm-1.388 0q0 4.91-3.082 7.992-3.116 3.048-7.993 3.048-4.843 0-7.959-3.116-3.081-3.082-3.081-7.925t3.115-7.958q3.116-3.116 7.925-3.116 4.877 0 7.993 3.116 3.082 3.082 3.082 7.958zM244.182 2.167V.78h-12.09v1.388h5.35V24.96h1.389V2.167z" fill="#224"/></g></svg>