<?xml version="1.0" encoding="UTF-8" standalone="no"?>
<!-- Created with Inkscape (http://www.inkscape.org/) -->

<svg
   xmlns:dc="http://purl.org/dc/elements/1.1/"
   xmlns:cc="http://creativecommons.org/ns#"
   xmlns:rdf="http://www.w3.org/1999/02/22-rdf-syntax-ns#"
   xmlns:svg="http://www.w3.org/2000/svg"
   xmlns="http://www.w3.org/2000/svg"
   xmlns:sodipodi="http://sodipodi.sourceforge.net/DTD/sodipodi-0.dtd"
   xmlns:inkscape="http://www.inkscape.org/namespaces/inkscape"
   width="922.89166"
   height="95.872063"
   viewBox="0 0 244.18175 25.366149"
   version="1.1"
   id="svg6727"
   inkscape:version="0.92.3 (2405546, 2018-03-11)"
   sodipodi:docname="zipper_and_knot.svg"
   inkscape:export-filename="/home/yuri/Dropbox/work/logo/ZIPPER-AND-KNOT_texted.svg.png"
   inkscape:export-xdpi="300"
   inkscape:export-ydpi="300">
  <defs
     id="defs6721" />
  <sodipodi:namedview
     id="base"
     pagecolor="#ffffff"
     bordercolor="#666666"
     borderopacity="1.0"
     inkscape:pageopacity="0.0"
     inkscape:pageshadow="2"
     inkscape:zoom="0.7"
     inkscape:cx="196.16965"
     inkscape:cy="-112.16175"
     inkscape:document-units="mm"
     inkscape:current-layer="layer1"
     showgrid="false"
     showborder="true"
     fit-margin-top="0"
     fit-margin-left="0"
     fit-margin-right="0"
     fit-margin-bottom="0"
     units="px"
     inkscape:window-width="1600"
     inkscape:window-height="851"
     inkscape:window-x="0"
     inkscape:window-y="25"
     inkscape:window-maximized="1"
     showguides="false"
     inkscape:guide-bbox="true">
    <sodipodi:guide
       position="5.73042e-07,0.40641067"
       orientation="0,1"
       id="guide6933"
       inkscape:locked="false" />
  </sodipodi:namedview>
  <metadata
     id="metadata6724">
    <rdf:RDF>
      <cc:Work
         rdf:about="">
        <dc:format>image/svg+xml</dc:format>
        <dc:type
           rdf:resource="http://purl.org/dc/dcmitype/StillImage" />
        <dc:title />
      </cc:Work>
    </rdf:RDF>
  </metadata>
  <g
     inkscape:label="レイヤー 1"
     inkscape:groupmode="layer"
     id="layer1"
     transform="translate(49.77599,-114.90135)">
    <path
       inkscape:connector-curvature="0"
       id="path6586"
       style="font-style:normal;font-variant:normal;font-weight:500;font-stretch:normal;font-size:33.86666489px;line-height:0.80000001;font-family:GeosansLight;-inkscape-font-specification:'GeosansLight, Medium';text-align:start;letter-spacing:0px;word-spacing:0px;writing-mode:lr-tb;text-anchor:start;fill:#222244;fill-opacity:1;stroke:none;stroke-width:0.26458332"
       d="m -33.41839,115.6803 h -15.5448 v 1.4224 h 13.0386 l -13.8514,22.75839 h 16.2898 v -1.38853 h -13.8176 z" />
    <path
       inkscape:connector-curvature="0"
       id="path6588"
       style="font-style:normal;font-variant:normal;font-weight:500;font-stretch:normal;font-size:33.86666489px;line-height:0.80000001;font-family:GeosansLight;-inkscape-font-specification:'GeosansLight, Medium';text-align:start;letter-spacing:0px;word-spacing:0px;writing-mode:lr-tb;text-anchor:start;fill:#222244;fill-opacity:1;stroke:none;stroke-width:0.26458332"
       d="M -28.50979,139.86109 V 115.6803 h -1.3546 v 24.18079 z" />
    <path
       inkscape:connector-curvature="0"
       id="path6590"
       style="font-style:normal;font-variant:normal;font-weight:500;font-stretch:normal;font-size:33.86666489px;line-height:0.80000001;font-family:GeosansLight;-inkscape-font-specification:'GeosansLight, Medium';text-align:start;letter-spacing:0px;word-spacing:0px;writing-mode:lr-tb;text-anchor:start;fill:#222244;fill-opacity:1;stroke:none;stroke-width:0.26458332"
       d="m -11.31689,121.6747 q 0,-2.7432 -1.89654,-4.3688 -1.89653,-1.6256 -4.6736,-1.6256 h -5.89279 v 24.18079 h 1.35469 v -12.0904 h 4.5381 q 2.77707,0 4.6736,-1.69333 1.89654,-1.6256 1.89654,-4.40266 z m -1.38854,0 q 0,2.20134 -1.49013,3.48826 -1.49013,1.2192 -3.72533,1.2192 h -4.50424 v -9.31333 h 4.50424 q 2.26906,0 3.6576,1.15147 1.55786,1.25307 1.55786,3.4544 z" />
    <path
       inkscape:connector-curvature="0"
       id="path6592"
       style="font-style:normal;font-variant:normal;font-weight:500;font-stretch:normal;font-size:33.86666489px;line-height:0.80000001;font-family:GeosansLight;-inkscape-font-specification:'GeosansLight, Medium';text-align:start;letter-spacing:0px;word-spacing:0px;writing-mode:lr-tb;text-anchor:start;fill:#222244;fill-opacity:1;stroke:none;stroke-width:0.26458332"
       d="m 4.45889,121.6747 q 0,-2.7432 -1.89654,-4.3688 -1.89653,-1.6256 -4.6736,-1.6256 h -5.8928 v 24.18079 h 1.35467 v -12.0904 h 4.53813 q 2.77707,0 4.6736,-1.69333 1.89654,-1.6256 1.89654,-4.40266 z m -1.38854,0 q 0,2.20134 -1.49013,3.48826 -1.49013,1.2192 -3.72533,1.2192 h -4.50427 v -9.31333 h 4.50427 q 2.26906,0 3.6576,1.15147 1.55786,1.25307 1.55786,3.4544 z" />
    <path
       inkscape:connector-curvature="0"
       id="path6594"
       style="font-style:normal;font-variant:normal;font-weight:500;font-stretch:normal;font-size:33.86666489px;line-height:0.80000001;font-family:GeosansLight;-inkscape-font-specification:'GeosansLight, Medium';text-align:start;letter-spacing:0px;word-spacing:0px;writing-mode:lr-tb;text-anchor:start;fill:#222244;fill-opacity:1;stroke:none;stroke-width:0.26458332"
       d="m 19.41711,139.86109 v -1.38853 H 9.18937 v -11.10827 h 10.22774 v -1.49013 H 9.18937 v -8.80533 H 19.41711 V 115.6803 H 7.80084 v 24.18079 z" />
    <path
       inkscape:connector-curvature="0"
       id="path6596"
       style="font-style:normal;font-variant:normal;font-weight:500;font-stretch:normal;font-size:33.86666489px;line-height:0.80000001;font-family:GeosansLight;-inkscape-font-specification:'GeosansLight, Medium';text-align:start;letter-spacing:0px;word-spacing:0px;writing-mode:lr-tb;text-anchor:start;fill:#222244;fill-opacity:1;stroke:none;stroke-width:0.26458332"
       d="m 35.53341,139.86109 -7.75547,-12.0904 q 1.45627,0 2.67547,-0.33866 1.2192,-0.37254 2.09973,-1.1176 0.9144,-0.74507 1.38853,-1.89654 0.508,-1.15146 0.508,-2.74319 0,-1.45627 -0.54186,-2.57387 -0.508,-1.1176 -1.38854,-1.86266 -0.88053,-0.77894 -2.09973,-1.15147 -1.2192,-0.4064 -2.57387,-0.4064 h -5.588 v 24.18079 h 1.35467 v -12.0904 h 2.60773 l 7.68774,12.0904 z m -2.50614,-18.22026 q 0,2.30293 -1.35466,3.52213 -1.3208,1.2192 -3.48827,1.2192 h -4.572 v -9.31333 h 4.19947 q 1.08373,0 2.032,0.3048 0.94826,0.27094 1.65946,0.84667 0.7112,0.54187 1.1176,1.4224 0.4064,0.84667 0.4064,1.99813 z" />
    <path
       inkscape:connector-curvature="0"
       id="path6598"
       style="font-style:normal;font-variant:normal;font-weight:500;font-stretch:normal;font-size:33.86666489px;line-height:0.80000001;font-family:GeosansLight;-inkscape-font-specification:'GeosansLight, Medium';text-align:start;letter-spacing:0px;word-spacing:0px;writing-mode:lr-tb;text-anchor:start;fill:#ef4625;fill-opacity:1;stroke:none;stroke-width:0.26458332"
       d="m 64.366342,139.86109 -9.6859,-24.95974 -9.652,24.95974 h 1.3547 l 2.8109,-7.24747 h 11.0067 l 2.7771,7.24747 z m -4.7413,-8.636 h -9.8891 l 4.9445,-12.8016 z" />
    <path
       inkscape:connector-curvature="0"
       id="path6600"
       style="font-style:normal;font-variant:normal;font-weight:500;font-stretch:normal;font-size:33.86666489px;line-height:0.80000001;font-family:GeosansLight;-inkscape-font-specification:'GeosansLight, Medium';text-align:start;letter-spacing:0px;word-spacing:0px;writing-mode:lr-tb;text-anchor:start;fill:#222244;fill-opacity:1;stroke:none;stroke-width:0.26458332"
       d="m 85.869572,140.2675 v -24.5872 h -1.38854 v 20.99733 l -18.05089,-21.16667 v 24.35014 h 1.3546 v -20.5232 z" />
    <path
       inkscape:connector-curvature="0"
       id="path6602"
       style="font-style:normal;font-variant:normal;font-weight:500;font-stretch:normal;font-size:33.86666489px;line-height:0.80000001;font-family:GeosansLight;-inkscape-font-specification:'GeosansLight, Medium';text-align:start;letter-spacing:0px;word-spacing:0px;writing-mode:lr-tb;text-anchor:start;fill:#222244;fill-opacity:1;stroke:none;stroke-width:0.26458332"
       d="m 107.71648,127.73682 q 0,-4.9784 -2.87867,-8.39893 -3.048,-3.6576 -7.924798,-3.6576 h -8.06026 v 24.1808 h 8.06026 q 4.910668,0 7.958668,-3.6576 2.8448,-3.4544 2.8448,-8.46667 z m -1.38854,0 q 0,4.9784 -2.9464,7.95867 -2.7432,2.77707 -6.468528,2.77707 h -6.7056 v -21.4376 h 6.7056 q 4.301068,0 6.942668,3.25119 2.47226,3.01414 2.47226,7.45067 z" />
    <path
       inkscape:connector-curvature="0"
       id="path6604"
       style="font-style:normal;font-variant:normal;font-weight:500;font-stretch:normal;font-size:33.86666489px;line-height:0.80000001;font-family:GeosansLight;-inkscape-font-specification:'GeosansLight, Medium';text-align:start;letter-spacing:0px;word-spacing:0px;writing-mode:lr-tb;text-anchor:start;fill:#222244;fill-opacity:1;stroke:none;stroke-width:0.26458332"
       d="m 132.3837,139.86109 -12.5984,-12.63227 11.5824,-11.54853 h -1.9642 L 118.6,126.41602 v -10.73573 h -1.3885 v 24.1808 H 118.6 V 128.3803 l 0.2032,-0.20321 11.6501,11.684 z" />
    <path
       inkscape:connector-curvature="0"
       id="path6606"
       style="font-style:normal;font-variant:normal;font-weight:500;font-stretch:normal;font-size:33.86666489px;line-height:0.80000001;font-family:GeosansLight;-inkscape-font-specification:'GeosansLight, Medium';text-align:start;letter-spacing:0px;word-spacing:0px;writing-mode:lr-tb;text-anchor:start;fill:#222244;fill-opacity:1;stroke:none;stroke-width:0.26458332"
       d="m 154.75055,140.26749 v -24.5872 h -1.38853 v 20.99733 L 135.3111,115.51096 v 24.35013 h 1.3547 v -20.5232 z" />
    <path
       inkscape:connector-curvature="0"
       id="path6608"
       style="font-style:normal;font-variant:normal;font-weight:500;font-stretch:normal;font-size:33.86666489px;line-height:0.80000001;font-family:GeosansLight;-inkscape-font-specification:'GeosansLight, Medium';text-align:start;letter-spacing:0px;word-spacing:0px;writing-mode:lr-tb;text-anchor:start;fill:#222244;fill-opacity:1;stroke:none;stroke-width:0.26458332"
       d="m 183.49806,127.7707 q 0,-5.4864 -3.48827,-8.97467 -3.52213,-3.4544 -8.97467,-3.4544 -5.4864,0 -8.97466,3.48827 -3.4544,3.4544 -3.4544,8.9408 0,5.4864 3.48826,8.97467 3.4544,3.45438 8.9408,3.45438 5.4864,0 8.97467,-3.48826 3.48827,-3.45439 3.48827,-8.94079 z m -1.38854,0 q 0,4.91067 -3.08186,7.99252 -3.11574,3.048 -7.99254,3.048 -4.84293,0 -7.95866,-3.11573 -3.08187,-3.08187 -3.08187,-7.9248 0,-4.84293 3.11573,-7.95867 3.11574,-3.11573 7.9248,-3.11573 4.8768,0 7.99254,3.11573 3.08186,3.08187 3.08186,7.95868 z" />
    <path
       inkscape:connector-curvature="0"
       id="path6610"
       style="font-style:normal;font-variant:normal;font-weight:500;font-stretch:normal;font-size:33.86666489px;line-height:0.80000001;font-family:GeosansLight;-inkscape-font-specification:'GeosansLight, Medium';text-align:start;letter-spacing:0px;word-spacing:0px;writing-mode:lr-tb;text-anchor:start;fill:#222244;fill-opacity:1;stroke:none;stroke-width:0.26458332"
       d="m 194.40577,117.06882 v -1.38853 h -12.0904 v 1.38853 h 5.35093 v 22.79227 h 1.38854 v -22.79227 z" />
  </g>
</svg>
